<svg xmlns="http://www.w3.org/2000/svg" width="23.918" height="12.355" viewBox="0 0 23.918 12.355">
  <g id="Icon_feather-arrow-right" data-name="Icon feather-arrow-right" transform="translate(6.546 -6)">
    <path id="Trazado_4" data-name="Trazado 4" d="M28.809,18.718H7.109a1.109,1.109,0,0,1,0-2.218h21.7a1.109,1.109,0,1,1,0,2.218Z" transform="translate(-12.546 -5.431)" fill="#ffa702"/>
    <path id="Trazado_5" data-name="Trazado 5" d="M17.609,18.355a1.109,1.109,0,0,1-.784-1.893l4.285-4.285L16.825,7.893a1.109,1.109,0,0,1,1.568-1.568l5.069,5.069a1.109,1.109,0,0,1,0,1.568l-5.069,5.069A1.105,1.105,0,0,1,17.609,18.355Z" transform="translate(-6.415 0)" fill="#ffa702"/>
  </g>
</svg>
