<svg xmlns="http://www.w3.org/2000/svg" xmlns:xlink="http://www.w3.org/1999/xlink" width="737.885" height="369.362" viewBox="0 0 737.885 369.362">
  <defs>
    <linearGradient id="linear-gradient" x1="0.105" y1="0.474" x2="1.103" y2="0.474" gradientUnits="objectBoundingBox">
      <stop offset="0" stop-color="#34254c"/>
      <stop offset="1" stop-color="#51397f"/>
    </linearGradient>
    <linearGradient id="linear-gradient-2" x1="0.182" y1="0.496" x2="0.772" y2="0.496" gradientUnits="objectBoundingBox">
      <stop offset="0" stop-color="#e1dae5"/>
      <stop offset="1" stop-color="#f7f4f9"/>
    </linearGradient>
    <linearGradient id="linear-gradient-3" x1="0.022" y1="0.205" x2="1.149" y2="0.205" gradientUnits="objectBoundingBox">
      <stop offset="0" stop-color="#c8b8d3"/>
      <stop offset="1" stop-color="#c8b8d3" stop-opacity="0.302"/>
    </linearGradient>
    <linearGradient id="linear-gradient-4" x1="-0.195" y1="0.445" x2="0.973" y2="0.445" xlink:href="#linear-gradient-3"/>
    <linearGradient id="linear-gradient-5" x1="-0.144" y1="0.463" x2="1.092" y2="0.463" gradientUnits="objectBoundingBox">
      <stop offset="0" stop-color="#c8b8d3" stop-opacity="0.902"/>
      <stop offset="1" stop-color="#c8b8d3" stop-opacity="0.302"/>
    </linearGradient>
    <linearGradient id="linear-gradient-6" x1="0.006" y1="0.466" x2="1.124" y2="0.466" xlink:href="#linear-gradient-5"/>
    <linearGradient id="linear-gradient-7" x1="0.008" y1="0.536" x2="1.024" y2="0.536" xlink:href="#linear-gradient-5"/>
    <linearGradient id="linear-gradient-8" x1="1.167" y1="0.42" x2="0.189" y2="0.642" gradientUnits="objectBoundingBox">
      <stop offset="0" stop-color="#fff"/>
      <stop offset="1" stop-color="#fff" stop-opacity="0"/>
    </linearGradient>
    <linearGradient id="linear-gradient-9" x1="0.421" y1="-0.023" x2="0.994" y2="0.639" xlink:href="#linear-gradient-3"/>
    <linearGradient id="linear-gradient-10" x1="1.116" y1="-0.295" x2="0.583" y2="1.264" xlink:href="#linear-gradient-8"/>
    <linearGradient id="linear-gradient-11" x1="-0.155" y1="0.536" x2="0.85" y2="0.536" xlink:href="#linear-gradient"/>
    <linearGradient id="linear-gradient-12" x1="0.019" y1="0.629" x2="1.238" y2="0.482" gradientUnits="objectBoundingBox">
      <stop offset="0" stop-color="#2d2244"/>
      <stop offset="1" stop-color="#3e2c5e" stop-opacity="0"/>
    </linearGradient>
    <linearGradient id="linear-gradient-13" x1="0.558" y1="0.066" x2="1.214" y2="0.889" gradientUnits="objectBoundingBox">
      <stop offset="0" stop-color="#ce1d3b"/>
      <stop offset="1" stop-color="#ed202e"/>
    </linearGradient>
    <linearGradient id="linear-gradient-14" x1="0.472" y1="-0.033" x2="0.859" y2="0.619" xlink:href="#linear-gradient-13"/>
    <linearGradient id="linear-gradient-15" x1="0.114" y1="0.523" x2="0.884" y2="0.467" gradientUnits="objectBoundingBox">
      <stop offset="0" stop-color="#a193ad"/>
      <stop offset="0.996" stop-color="#cec4d6"/>
    </linearGradient>
    <linearGradient id="linear-gradient-16" x1="0.678" y1="0.9" x2="0.573" y2="-0.03" xlink:href="#linear-gradient-2"/>
    <linearGradient id="linear-gradient-17" x1="0.18" y1="0.995" x2="0.713" y2="0.294" gradientUnits="objectBoundingBox">
      <stop offset="0" stop-color="#cec4d6"/>
      <stop offset="0.996" stop-color="#cec4d6" stop-opacity="0"/>
    </linearGradient>
    <linearGradient id="linear-gradient-18" x1="1.499" y1="0.902" x2="1.146" y2="0.154" gradientUnits="objectBoundingBox">
      <stop offset="0" stop-color="#34254c"/>
      <stop offset="1" stop-color="#432a68"/>
    </linearGradient>
    <linearGradient id="linear-gradient-19" x1="1.477" y1="0.914" x2="1.125" y2="0.175" xlink:href="#linear-gradient-18"/>
    <linearGradient id="linear-gradient-20" x1="2.004" y1="1.388" x2="1.703" y2="-0.039" xlink:href="#linear-gradient-15"/>
    <linearGradient id="linear-gradient-21" x1="1.034" y1="1.218" x2="1.923" y2="0.266" gradientUnits="objectBoundingBox">
      <stop offset="0" stop-color="#3492b7"/>
      <stop offset="1" stop-color="#4cc8e5"/>
    </linearGradient>
    <linearGradient id="linear-gradient-22" x1="0.992" y1="0.591" x2="1.992" y2="0.591" gradientUnits="objectBoundingBox">
      <stop offset="0" stop-color="#d733db"/>
      <stop offset="1" stop-color="#f43ef9"/>
    </linearGradient>
    <linearGradient id="linear-gradient-23" x1="0.587" y1="0.723" x2="1.491" y2="0.489" gradientUnits="objectBoundingBox">
      <stop offset="0" stop-color="#1e45a5"/>
      <stop offset="1" stop-color="#2265c6"/>
    </linearGradient>
    <linearGradient id="linear-gradient-24" x1="0.172" y1="0.623" x2="1.137" y2="0.192" xlink:href="#linear-gradient"/>
    <linearGradient id="linear-gradient-25" x1="0.173" y1="0.497" x2="1.178" y2="0.497" xlink:href="#linear-gradient"/>
    <linearGradient id="linear-gradient-26" x1="1.415" y1="0.347" x2="1.002" y2="0.409" xlink:href="#linear-gradient-2"/>
    <linearGradient id="linear-gradient-27" x1="1.196" y1="0.544" x2="1.568" y2="0.498" xlink:href="#linear-gradient-2"/>
    <linearGradient id="linear-gradient-28" x1="0.757" y1="0.276" x2="1.763" y2="0.276" xlink:href="#linear-gradient-2"/>
    <linearGradient id="linear-gradient-29" x1="0.258" y1="0.579" x2="1.142" y2="0.238" xlink:href="#linear-gradient-2"/>
    <linearGradient id="linear-gradient-30" x1="0.618" y1="0.882" x2="0.896" y2="-0.032" gradientUnits="objectBoundingBox">
      <stop offset="0" stop-color="#c8b8d3"/>
      <stop offset="1" stop-color="#c8b8d3" stop-opacity="0"/>
    </linearGradient>
    <linearGradient id="linear-gradient-31" x1="0.377" y1="0.823" x2="0.924" y2="0.502" xlink:href="#linear-gradient-2"/>
    <linearGradient id="linear-gradient-32" x1="0.123" y1="0.588" x2="1.293" y2="0.33" gradientUnits="objectBoundingBox">
      <stop offset="0" stop-color="#201d21"/>
      <stop offset="1" stop-color="#524b56"/>
    </linearGradient>
    <linearGradient id="linear-gradient-33" x1="-0.041" y1="0.504" x2="0.642" y2="0.462" gradientUnits="objectBoundingBox">
      <stop offset="0" stop-color="#111011"/>
      <stop offset="1" stop-color="#111011" stop-opacity="0"/>
    </linearGradient>
    <linearGradient id="linear-gradient-34" x1="0.786" y1="-0.24" x2="1.124" y2="1.313" gradientUnits="objectBoundingBox">
      <stop offset="0" stop-color="#ede7f2"/>
      <stop offset="1" stop-color="#ede7f2" stop-opacity="0"/>
    </linearGradient>
    <linearGradient id="linear-gradient-35" x1="1.98" y1="-0.595" x2="4.063" y2="2.279" xlink:href="#linear-gradient-34"/>
    <linearGradient id="linear-gradient-36" x1="0.042" y1="0.649" x2="1.07" y2="0.649" xlink:href="#linear-gradient"/>
    <linearGradient id="linear-gradient-37" x1="0.895" y1="0.808" x2="0.002" y2="-0.378" xlink:href="#linear-gradient"/>
    <linearGradient id="linear-gradient-38" x1="1.467" y1="1.184" x2="1.033" y2="0.128" xlink:href="#linear-gradient"/>
    <linearGradient id="linear-gradient-39" x1="0.937" y1="0.342" x2="2.08" y2="0.342" xlink:href="#linear-gradient"/>
    <linearGradient id="linear-gradient-40" x1="0.18" y1="0.66" x2="1.164" y2="0.23" xlink:href="#linear-gradient-15"/>
    <linearGradient id="linear-gradient-41" x1="1.081" y1="0.736" x2="0.409" y2="0.178" xlink:href="#linear-gradient-2"/>
    <linearGradient id="linear-gradient-42" x1="0.942" y1="-0.107" x2="1.914" y2="-0.107" xlink:href="#linear-gradient-2"/>
    <linearGradient id="linear-gradient-43" x1="0.802" y1="-0.182" x2="1.796" y2="-0.182" xlink:href="#linear-gradient-2"/>
    <linearGradient id="linear-gradient-44" x1="0.477" y1="-0.088" x2="1.448" y2="-0.088" xlink:href="#linear-gradient-2"/>
    <linearGradient id="linear-gradient-45" x1="0.335" y1="-0.24" x2="1.316" y2="-0.24" xlink:href="#linear-gradient-2"/>
    <linearGradient id="linear-gradient-46" x1="2.211" y1="-0.743" x2="1.066" y2="0.682" xlink:href="#linear-gradient-3"/>
    <linearGradient id="linear-gradient-47" x1="1.724" y1="0.654" x2="0.607" y2="0.381" xlink:href="#linear-gradient-3"/>
    <linearGradient id="linear-gradient-48" x1="1.339" y1="0.661" x2="1.528" y2="-0.369" xlink:href="#linear-gradient"/>
    <linearGradient id="linear-gradient-49" x1="1.265" y1="-0.431" x2="2.288" y2="-0.431" xlink:href="#linear-gradient"/>
    <linearGradient id="linear-gradient-50" x1="0.925" y1="-0.372" x2="1.928" y2="-0.372" xlink:href="#linear-gradient"/>
    <linearGradient id="linear-gradient-51" x1="0.96" y1="-0.352" x2="1.963" y2="-0.352" xlink:href="#linear-gradient"/>
    <linearGradient id="linear-gradient-52" x1="0.676" y1="-0.413" x2="1.672" y2="-0.413" xlink:href="#linear-gradient"/>
    <linearGradient id="linear-gradient-53" x1="-25.507" y1="1.555" x2="-26.145" y2="0.974" xlink:href="#linear-gradient-2"/>
    <linearGradient id="linear-gradient-54" x1="-157.548" y1="4.179" x2="-156.495" y2="4.179" xlink:href="#linear-gradient-2"/>
    <linearGradient id="linear-gradient-55" x1="-143.059" y1="4.653" x2="-142.046" y2="4.653" xlink:href="#linear-gradient-2"/>
    <linearGradient id="linear-gradient-56" x1="-102.724" y1="3.607" x2="-101.67" y2="3.607" xlink:href="#linear-gradient-2"/>
    <linearGradient id="linear-gradient-57" x1="-82.603" y1="4.201" x2="-81.56" y2="4.201" xlink:href="#linear-gradient-2"/>
    <linearGradient id="linear-gradient-58" x1="-156.904" y1="1.669" x2="-157.783" y2="3.153" xlink:href="#linear-gradient-3"/>
    <linearGradient id="linear-gradient-59" x1="-49.681" y1="1.477" x2="-50.53" y2="1.189" xlink:href="#linear-gradient-3"/>
    <linearGradient id="linear-gradient-60" x1="-132.106" y1="5.027" x2="-131.92" y2="4.003" xlink:href="#linear-gradient"/>
    <linearGradient id="linear-gradient-61" x1="-193.221" y1="6.763" x2="-192.255" y2="6.763" xlink:href="#linear-gradient"/>
    <linearGradient id="linear-gradient-62" x1="-162.079" y1="5.758" x2="-161.087" y2="5.758" xlink:href="#linear-gradient"/>
    <linearGradient id="linear-gradient-63" x1="-198.5" y1="5.486" x2="-197.517" y2="5.486" xlink:href="#linear-gradient"/>
    <linearGradient id="linear-gradient-64" x1="-166.107" y1="5.945" x2="-165.099" y2="5.945" xlink:href="#linear-gradient"/>
    <linearGradient id="linear-gradient-65" x1="-0.062" y1="0.552" x2="1.015" y2="0.552" xlink:href="#linear-gradient-2"/>
    <linearGradient id="linear-gradient-66" x1="-0.148" y1="0.933" x2="1.06" y2="0.322" gradientUnits="objectBoundingBox">
      <stop offset="0" stop-color="#bbaec4"/>
      <stop offset="1" stop-color="#ded1e8"/>
    </linearGradient>
    <linearGradient id="linear-gradient-67" x1="-30.367" y1="20.453" x2="-29.719" y2="20.453" xlink:href="#linear-gradient-2"/>
    <linearGradient id="linear-gradient-68" x1="0.082" y1="0.482" x2="0.96" y2="0.307" xlink:href="#linear-gradient-66"/>
    <linearGradient id="linear-gradient-69" x1="0.921" y1="0.314" x2="0.142" y2="0.721" gradientUnits="objectBoundingBox">
      <stop offset="0" stop-color="#04074a"/>
      <stop offset="0.89" stop-opacity="0"/>
    </linearGradient>
    <linearGradient id="linear-gradient-70" x1="0.851" y1="0.293" x2="0.077" y2="0.843" gradientUnits="objectBoundingBox">
      <stop offset="0" stop-color="#04074a"/>
      <stop offset="1" stop-color="#04074a"/>
    </linearGradient>
  </defs>
  <g id="Grupo_21872" data-name="Grupo 21872" transform="translate(-591.066 -349.801)">
    <g id="Grupo_21850" data-name="Grupo 21850" transform="translate(591.066 349.801)">
      <g id="Grupo_21846" data-name="Grupo 21846" transform="translate(0 7.152)">
        <g id="Grupo_21845" data-name="Grupo 21845">
          <path id="Trazado_110" data-name="Trazado 110" d="M306.246,460.477V398.836H166.992V355.708L301.7,155.43h55.442V355.708h34.651v43.127H357.143v61.641Zm1.735-104.768,3.031-148.946L215.721,355.708Z" transform="translate(-166.992 -155.43)" fill="#fff"/>
        </g>
      </g>
      <g id="Grupo_21848" data-name="Grupo 21848" transform="translate(513.083 7.152)" opacity="0.94">
        <g id="Grupo_21847" data-name="Grupo 21847">
          <path id="Trazado_111" data-name="Trazado 111" d="M595.522,460.477V398.836H456.266V355.708L590.974,155.43h55.442V355.708h34.651v43.127H646.417v61.641Zm1.733-104.768,3.031-148.946L505,355.708Z" transform="translate(-456.266 -155.43)" fill="#fff"/>
        </g>
      </g>
      <g id="Grupo_21849" data-name="Grupo 21849" transform="translate(255.506)" opacity="0.94">
        <path id="Trazado_112" data-name="Trazado 112" d="M539.1,314.228q0,73.423-30.429,114.971t-83.7,41.551q-53.926,0-83.922-41.973T311.045,310.862q0-75.312,30.321-117.39T425.611,151.4q54.578,0,84.03,42.18T539.1,314.228Zm-115,113.392q31.615,0,47.537-29.348t15.919-87.83q0-56.8-15.7-86.572T426.044,194.1q-31.4,0-47.429,29.663T362.59,311.282q0,56.172,15.919,86.255T424.1,427.621Z" transform="translate(-311.045 -151.398)" fill="#fff"/>
      </g>
    </g>
    <g id="Grupo_21866" data-name="Grupo 21866" transform="translate(839.925 406.206)">
      <g id="Grupo_21865" data-name="Grupo 21865">
        <path id="Trazado_138" data-name="Trazado 138" d="M350.38,245.5s-4.752-14.461-3.21-16.527S369.7,217.775,396.5,212.085s28.062-3.535,30.13-1.994S431.21,228,431.161,231.37,350.38,245.5,350.38,245.5Z" transform="translate(-276.688 -163.72)" fill="url(#linear-gradient)"/>
        <path id="Trazado_139" data-name="Trazado 139" d="M492.647,351.149l-1.861,4.1-12.992,28.642L465.35,411.325c-6.183-4.344-8.106-20.194-7.808-32.271a96.861,96.861,0,0,0-1.371-20.092,26.416,26.416,0,0,1-9.119-8.054,47.215,47.215,0,0,1-3.67-5.7v0c-.791-1.444-1.21-2.386-1.21-2.386-14.53.711-24.424-8.707-26.77-10.229s-6.736-.1-11.112,9.729c-3.938,8.849-13.916,12.43-15.869,13.06-.216.069-.335.1-.335.1-.424,2.373-.869,4.514-1.332,6.453-3.711,15.665-8.232,17.751-8.232,17.751-.495,5.08,2.531,12.443,3.457,21.912s-.037,24.113-.037,24.113l-13.072-8.116L343.3,401.706s-9.692-22.89-9.09-30.5a21.833,21.833,0,0,1,1.295-5.777,27.043,27.043,0,0,1,2.473-5.02l.007-.009a21.307,21.307,0,0,1,1.768-2.469s-.036-1.219.023-3.125c.027-.851.073-1.841.147-2.923a57.646,57.646,0,0,1,1.11-8.058,18.259,18.259,0,0,1,.584-2.061,21.981,21.981,0,0,1,1.483-3.37,26.142,26.142,0,0,1,1.733-2.76v0l.005,0,.064-.09.043-.06.019-.023.02-.027.062-.089c.048-.066.094-.129.144-.192s.092-.128.142-.186c.168-.222.333-.435.5-.635a22.313,22.313,0,0,1,1.974-2.173l0,0,0,0s.576-2,1.357-4.871c.6-2.219,1.323-4.957,1.992-7.694,1.534-6.272,1.383-8.5,5.378-11.581,3.929-3.024,4.908-5.575,7.219-7.414l.011-.007.108-.089c1.346-1.036,3.8-2.586,5.7-3.75l.023-.011c1.474-.908,2.606-1.573,2.606-1.573a25.356,25.356,0,0,1,1.4-8.226,10.9,10.9,0,0,1-1.119-2.652c-.376-1.2-.617-2.276-.617-2.276-.649.442-1.284.835-1.9,1.187l-.014.009c-6.774,3.845-11.568,2.527-11.568,2.527a26.185,26.185,0,0,1-5.355,1.623,24.494,24.494,0,0,1-6.852.328c-11.295-1.025-19.138-9.346-19.138-9.346l5.9-8.356,13.021-18.448a15.383,15.383,0,0,1,5.192,1.864l.011.005a9.735,9.735,0,0,1,1.066.75l.009.009c.172.14.325.277.463.408a5.316,5.316,0,0,1,1.1,1.387l0,.005c.027.051.039.082.039.082a.055.055,0,0,1,.005-.023v0a11.364,11.364,0,0,1,.17-1.2,7.857,7.857,0,0,1,.759-2.224c.067-.126.137-.245.208-.36a4.933,4.933,0,0,1,1.2-1.346,3.527,3.527,0,0,1,1.463-.708q.059-.567.135-1.105c1.857-13.6,10.616-13.927,10.616-13.927,1.825-10.216,12.189-10.364,12.189-10.364s2.194.516,5.651,1l.025,0c5.525.775,14.264,1.474,22.421-.115a31.036,31.036,0,0,0,17.217-9.569,19.237,19.237,0,0,0,1.873-2.387c8.556-1.985,15.177,8.778,15.177,8.778,4.9.016,8.828,3.272,11.08,5.715a21.241,21.241,0,0,1,2.105,2.637c.053-.071.112-.142.169-.211a13.369,13.369,0,0,1,1.834-1.88l.007-.009.021-.016c.021-.02.036-.03.036-.03v0c.113-.1.227-.19.342-.278h0a17.05,17.05,0,0,1,3.171-1.978,19.138,19.138,0,0,1,4.94-1.641l11.54,23.877,2.5,5.163a17.883,17.883,0,0,1-9.448,11.559,21.228,21.228,0,0,1-2.311,1.018,14.03,14.03,0,0,1-1.792.537c-6.483,1.5-13.608-1.391-17.659-3.5l0,0s-.055-.023-.156-.078c-.032-.018-.064-.035-.1-.05-.073-.041-.16-.087-.259-.145-1.747-.935-2.8-1.657-2.8-1.657a21.043,21.043,0,0,1,.961,3.468l0,0c.043.231.083.463.122.693a41,41,0,0,1,.2,10.608,34.273,34.273,0,0,1,1.994,8.1c.319,3.379-.451,4.789-.717,5.163-.041.059-.069.09-.08.106a5.678,5.678,0,0,1,.649-.346l.025-.012a12.217,12.217,0,0,1,2.274-.773c.149-.037.3-.069.461-.1l.062-.012a16.871,16.871,0,0,1,1.882-.266h0A24.184,24.184,0,0,1,464,289.619l.009,0c.1.037.209.073.316.112.2.071.4.144.6.224C475.572,294,480.1,311.07,480.1,311.07a18.6,18.6,0,0,1,4.725,4.982,31.709,31.709,0,0,1,5.594,14.78C491.384,340.861,492.647,351.149,492.647,351.149Z" transform="translate(-292.028 -159.781)" fill="url(#linear-gradient-2)"/>
        <path id="Trazado_140" data-name="Trazado 140" d="M346.172,263.029c-11.295-1.025-19.138-9.346-19.138-9.346l5.9-8.356c2.013,2.575,6.375,7.215,12.634,8.773a18.4,18.4,0,0,0,5.882.52A28.856,28.856,0,0,1,346.172,263.029Z" transform="translate(-292.028 -135.13)" fill="url(#linear-gradient-3)"/>
        <path id="Trazado_141" data-name="Trazado 141" d="M435.1,264.137l-8.9,13.461s-7.829,12.632-22.492,11.389-27.913-14.636-38.436-8.592-16.6,19.635-16.6,19.635l6.045-1.813s-10.626,7.019-12.529,11.463a2.032,2.032,0,0,0,.309,2.547l-6.408,1.875a26.142,26.142,0,0,1,1.733-2.76v0l.005,0,.064-.09.043-.06.019-.023.02-.027.062-.089c.048-.066.094-.129.144-.192s.092-.128.142-.186c.168-.222.333-.435.5-.635a22.313,22.313,0,0,1,1.974-2.173l0,0,0,0s.576-2,1.357-4.871c.6-2.219,1.323-4.957,1.992-7.694,1.534-6.272,1.383-8.5,5.378-11.581,3.929-3.024,4.908-5.575,7.219-7.414l.011-.007.108-.089c1.346-1.036,3.8-2.586,5.7-3.75l.023-.011c1.474-.908,2.606-1.573,2.606-1.573a25.356,25.356,0,0,1,1.4-8.226,10.9,10.9,0,0,1-1.119-2.652c-.376-1.2-.617-2.276-.617-2.276-.649.442-1.284.835-1.9,1.187l-.014.009c-6.774,3.845-11.568,2.527-11.568,2.527a26.185,26.185,0,0,1-5.355,1.623,31.218,31.218,0,0,0,3.265-9.188,13.444,13.444,0,0,0,3.673-2.075s1.846,2.4,6.311,2.091,13.168-4.262,13.124-9.025A31.377,31.377,0,0,0,393.763,266.4C411.521,271.913,427.72,266.884,435.1,264.137Z" transform="translate(-285.021 -135.489)" fill="url(#linear-gradient-4)"/>
        <path id="Trazado_142" data-name="Trazado 142" d="M360.857,318.364c-.495,5.08,2.531,12.443,3.457,21.912s-.037,24.113-.037,24.113L351.2,356.273c3.04-8.31-.906-20.862-1.312-30.153-.5-11.462,6.476-11.937,6.476-11.937a19.329,19.329,0,0,1,5.967-21.467,40.44,40.44,0,0,1,6.754,7.9C365.378,316.278,360.857,318.364,360.857,318.364Z" transform="translate(-274.363 -98.466)" fill="url(#linear-gradient-5)"/>
        <path id="Trazado_143" data-name="Trazado 143" d="M423.869,284.958a46.136,46.136,0,0,0-5.491,12.841c-.791-1.444-1.21-2.386-1.21-2.386-14.53.711-24.424-8.707-26.77-10.229s-6.736-.1-11.112,9.729c-3.938,8.849-13.916,12.43-15.869,13.06-.83-1.07-2.226-2.808-4.064-4.837,3.43-3.395,6.295-8.239,11.009-15.743,6.07-9.667,13.783-11.619,17.657-12.419,6.082-1.256,8.86,2.48,22.732,8.542A21.612,21.612,0,0,0,423.869,284.958Z" transform="translate(-267.023 -112.381)" fill="url(#linear-gradient-6)"/>
        <path id="Trazado_144" data-name="Trazado 144" d="M425.442,332.33,413,359.765c-6.183-4.344-8.106-20.194-7.808-32.271a96.861,96.861,0,0,0-1.371-20.092,26.416,26.416,0,0,1-9.119-8.054,108.905,108.905,0,0,1,11.866-19.241c-1.99,8.1,1.933,14.363,6.564,19.933,0,0-1.4,12.43,1.02,23.2C415.722,330.24,421.554,331.973,425.442,332.33Z" transform="translate(-239.676 -108.222)" fill="url(#linear-gradient-7)"/>
        <path id="Trazado_145" data-name="Trazado 145" d="M432.763,317.88l-1.861,4.1c-3.519-3.918-6.563-12.2-8.161-23.6-2.183-15.552-11.772-17.707-11.772-17.707,3.8-12.458-4.872-22.439-6.534-24.2.2.071.4.144.6.224,10.649,4.039,15.178,21.112,15.178,21.112a18.6,18.6,0,0,1,4.725,4.982,31.709,31.709,0,0,1,5.594,14.78C431.5,307.593,432.763,317.88,432.763,317.88Z" transform="translate(-232.144 -126.513)" fill="url(#linear-gradient-8)"/>
        <path id="Trazado_146" data-name="Trazado 146" d="M363.242,228.634c.938,5.545,10.2,5.752,10.2,5.752-5.764,1.795-10.566,1.282-16.522.286s-9.995,9.654-8.381,10.342,3.155,3.473,3.155,3.473c-4.636-2.208-5.321.082-3.863,5.028s.857,12.558.857,12.558c-.908-5.147-4.287-12.1-6.453-16.2a7.857,7.857,0,0,1,.759-2.224c.067-.126.137-.245.208-.36a4.933,4.933,0,0,1,1.2-1.346,3.527,3.527,0,0,1,1.463-.708q.059-.567.135-1.105c1.857-13.6,10.616-13.927,10.616-13.927,1.825-10.216,12.189-10.364,12.189-10.364s2.194.516,5.651,1C370.213,220.3,362.3,223.1,363.242,228.634Z" transform="translate(-280.264 -154.847)" fill="url(#linear-gradient-9)"/>
        <path id="Trazado_147" data-name="Trazado 147" d="M413.173,230.63l-.215,1.055a18.8,18.8,0,0,0-14.846-5.436c-1.071,4.839-9.425,5.69-9.425,5.69s6.488-3.526,5.646-7.675-11.474-7.909-11.474-7.909c-.034-.085-.062-.172-.09-.257a19.237,19.237,0,0,0,1.873-2.387c8.556-1.985,15.177,8.778,15.177,8.778,4.9.016,8.828,3.272,11.08,5.715A21.241,21.241,0,0,1,413,230.841C413.057,230.77,413.116,230.7,413.173,230.63Z" transform="translate(-248.907 -159.781)" fill="url(#linear-gradient-10)"/>
        <path id="Trazado_148" data-name="Trazado 148" d="M342.973,287.226c-.2.475-6.547,15.763-11.16,21.13l0,.005a27.043,27.043,0,0,1,2.473-5.02l.007-.009a21.307,21.307,0,0,1,1.768-2.469s-.036-1.219.023-3.125c.027-.851.073-1.841.147-2.923A21.694,21.694,0,0,0,342.973,287.226Z" transform="translate(-288.334 -102.714)" fill="#cec4d6"/>
        <path id="Trazado_149" data-name="Trazado 149" d="M415.28,248.231a47.118,47.118,0,0,0,4.737,7.934c-6.483,1.5-13.608-1.391-17.659-3.5l0,0s-.055-.023-.156-.078c-.032-.018-.064-.035-.1-.05-.073-.041-.16-.087-.259-.145-1.747-.935-2.8-1.657-2.8-1.657a21.044,21.044,0,0,1,.961,3.468l0,0c.043.231.083.463.122.694-8.329-11.577-12.031-26.756-12.2-27.487.257.733,5.587,15.694,18.443,19.741A22.685,22.685,0,0,0,415.28,248.231Z" transform="translate(-244.914 -148.995)" fill="#e5dfe9"/>
        <path id="Trazado_150" data-name="Trazado 150" d="M419.728,238.479a17.883,17.883,0,0,1-9.448,11.559,44.474,44.474,0,0,1-4.459-7.3,22.621,22.621,0,0,0,11.41-9.424Z" transform="translate(-231.072 -144.424)" fill="#e5dfe9"/>
        <g id="Grupo_21854" data-name="Grupo 21854" transform="translate(88.906 124.613)">
          <path id="Trazado_151" data-name="Trazado 151" d="M428.083,257.593l0,.012s-11.912,6.683-13.826,8.824-3.606,5.413-12.716,8.205a62.081,62.081,0,0,1-7.728,1.827c-7.962,1.353-17.881,1.414-26.008-3.171a23.117,23.117,0,0,0-10.385-8.611,83.439,83.439,0,0,0,10.754,1.667c.348.021.686.037,1.011.043.543.014,1.05.007,1.513-.025a5.288,5.288,0,0,1,1.859-1.529c.976-.4,3.462-.367,6.74-.4l1.3-.014c1.9-.028,4.009-.1,6.213-.282,1.946-.163,3.845-.387,5.566-.623.447-.059.883-.119,1.3-.181,3.068-.445,5.351-.869,5.913-.908a4.71,4.71,0,0,1,3.217,1.219c.158.138.245.227.245.227s.309-.108.857-.305c1.025-.372,2.895-1.057,5.158-1.949.314-.122.639-.252.968-.383.654-.261,1.334-.534,2.033-.823l.715-.3h0c1.724-.72,3.53-1.5,5.273-2.318.185-.085.372-.174.553-.263a50,50,0,0,0,7.32-4.085q.059.623.071,1.156c.067,2.552-.555,3.677-.788,4.007-.041.059-.069.09-.08.106a5.684,5.684,0,0,1,.649-.346l.025-.012A12.218,12.218,0,0,1,428.083,257.593Z" transform="translate(-357.423 -253.455)" fill="url(#linear-gradient-11)"/>
          <path id="Trazado_152" data-name="Trazado 152" d="M426,254.611c-2.921,1.788-13.508,8.047-22.01,10.183l-.144,3.739c.011-.4-.1-4.665-8.833-3.267a135.364,135.364,0,0,1-18.12,1.516s2.462,10.844,16.919,9.679c-7.962,1.353-17.881,1.414-26.008-3.171a23.117,23.117,0,0,0-10.385-8.611,83.439,83.439,0,0,0,10.754,1.667c.348.021.686.037,1.011.043.543.014,1.05.007,1.513-.025a5.288,5.288,0,0,1,1.859-1.529c.976-.4,3.462-.367,6.74-.4l1.3-.014c1.9-.028,4.009-.1,6.213-.282,1.946-.163,3.845-.387,5.566-.623.447-.059.883-.119,1.3-.181,3.068-.445,5.351-.869,5.913-.908a4.71,4.71,0,0,1,3.217,1.219c.158.138.245.227.245.227s.309-.108.857-.305c1.025-.372,2.895-1.057,5.158-1.949.314-.122.639-.252.968-.383.654-.261,1.334-.534,2.033-.823l.715-.3h0c1.724-.72,3.53-1.5,5.273-2.318.185-.085.372-.174.553-.263a50,50,0,0,0,7.32-4.085Q425.99,254.078,426,254.611Z" transform="translate(-357.423 -253.455)" fill="url(#linear-gradient-12)"/>
          <g id="Grupo_21853" data-name="Grupo 21853" transform="translate(10.754 4.085)">
            <path id="Trazado_153" data-name="Trazado 153" d="M371.054,259.64l.018,11.635-1.314-11.621Z" transform="translate(-358.634 -252.755)" fill="#5c479e"/>
            <path id="Trazado_154" data-name="Trazado 154" d="M378.431,259.028l-.505,11.866-.8-11.685C377.576,259.15,378.012,259.09,378.431,259.028Z" transform="translate(-352.931 -253.228)" fill="#5c479e"/>
            <path id="Trazado_155" data-name="Trazado 155" d="M364.5,260.766l-.676,4.89-.335-4.933C363.834,260.744,364.172,260.76,364.5,260.766Z" transform="translate(-363.486 -251.917)" fill="#5c479e"/>
            <path id="Trazado_156" data-name="Trazado 156" d="M383.548,267.855c-.032-3.374-.355-6.864-.537-8.618.158.138.245.227.245.227s.309-.108.857-.305A34.911,34.911,0,0,1,383.548,267.855Z" transform="translate(-348.38 -253.127)" fill="#5c479e"/>
            <path id="Trazado_157" data-name="Trazado 157" d="M387.508,257.844l-.5,7.242-.466-6.859C386.854,258.1,387.179,257.975,387.508,257.844Z" transform="translate(-345.649 -254.144)" fill="#5c479e"/>
            <path id="Trazado_158" data-name="Trazado 158" d="M388.947,257.213l-.369,5.362-.346-5.066Z" transform="translate(-344.34 -254.632)" fill="#5c479e"/>
            <path id="Trazado_159" data-name="Trazado 159" d="M392.162,255.758l-.287,4.175-.266-3.913C391.794,255.935,391.982,255.847,392.162,255.758Z" transform="translate(-341.727 -255.758)" fill="#5c479e"/>
          </g>
        </g>
        <g id="Grupo_21855" data-name="Grupo 21855" transform="translate(45.955 68.422)">
          <path id="Trazado_160" data-name="Trazado 160" d="M384,272.65c-6.045,1.815-13.173-12.279-24.876-11.2a38.875,38.875,0,0,0-11.378,3.381l.108-.089c1.346-1.036,3.8-2.586,5.7-3.75l.023-.011c.3-.14,3.62-1.6,10.2-1.25C372.207,260.176,378.059,271.933,384,272.65Z" transform="translate(-321.962 -192.451)" fill="#aca5b5"/>
          <path id="Trazado_161" data-name="Trazado 161" d="M418.228,257.071c-16.458-2.068-32.04,14.362-32.04,14.362,6.784-8.767,12.758-12.678,16.772-14.424.2-.087.385-.165.569-.239l.025-.012a18.9,18.9,0,0,1,2.735-.876l.062-.012a8.86,8.86,0,0,1,1.882-.266h0A24.184,24.184,0,0,1,418.228,257.071Z" transform="translate(-292.216 -195.655)" fill="#aca5b5"/>
          <path id="Trazado_162" data-name="Trazado 162" d="M337.068,282.344l.005,0-.005.006Z" transform="translate(-330.22 -174.915)" fill="#aca5b5"/>
          <path id="Trazado_163" data-name="Trazado 163" d="M353.925,274.946a43.668,43.668,0,0,0-16.818,13.026,24.3,24.3,0,0,1,2.905-3.39s.576-2,1.357-4.871A65.166,65.166,0,0,1,353.925,274.946Z" transform="translate(-330.19 -180.637)" fill="#aca5b5"/>
          <path id="Trazado_164" data-name="Trazado 164" d="M338.443,291.147a32.028,32.028,0,0,1-5.236,9.152,21.307,21.307,0,0,1,1.768-2.469s-.036-1.219.023-3.125A11.682,11.682,0,0,0,338.443,291.147Z" transform="translate(-333.207 -168.102)" fill="#aca5b5"/>
          <path id="Trazado_165" data-name="Trazado 165" d="M403.449,222.321c-.637.582-5.914,5.9-4.3,21.873,0,0-3.374-11.958.19-22.419a21.241,21.241,0,0,1,2.105,2.637A13.391,13.391,0,0,1,403.449,222.321Z" transform="translate(-283.304 -221.775)" fill="#c0b8cc"/>
          <path id="Trazado_166" data-name="Trazado 166" d="M400.969,222.069l-.021.016.011-.009Z" transform="translate(-280.796 -221.548)" fill="#aca5b5"/>
          <path id="Trazado_167" data-name="Trazado 167" d="M342.8,238.2a12.183,12.183,0,0,0-1.559-1.795A5.916,5.916,0,0,1,342.8,238.2Z" transform="translate(-326.993 -210.453)" fill="#aca5b5"/>
          <path id="Trazado_168" data-name="Trazado 168" d="M348.767,253.943c-2.554-8.225-4.915-12.639-6.623-14.989v0a8.875,8.875,0,0,1,.929-3.427C347.38,243.476,348.767,253.943,348.767,253.943Z" transform="translate(-326.292 -211.138)" fill="#aca5b5"/>
          <path id="Trazado_169" data-name="Trazado 169" d="M350.7,237.054a7.4,7.4,0,0,0-7.235-1.7,3.527,3.527,0,0,1,1.463-.708q.059-.567.135-1.105A8.939,8.939,0,0,1,350.7,237.054Z" transform="translate(-325.273 -212.673)" fill="#aca5b5"/>
          <path id="Trazado_170" data-name="Trazado 170" d="M360.068,248.969a70.191,70.191,0,0,1-7.127,7.845c-.376-1.2-.617-2.276-.617-2.276C351.674,254.98,360.068,248.969,360.068,248.969Z" transform="translate(-318.444 -200.735)" fill="#aca5b5"/>
          <path id="Trazado_171" data-name="Trazado 171" d="M395.984,243.063a21.044,21.044,0,0,1,.961,3.468,26.385,26.385,0,0,1-5.057-9.211,18.217,18.217,0,0,0,6.894,7.4C397.036,243.785,395.984,243.063,395.984,243.063Z" transform="translate(-287.805 -209.748)" fill="#aca5b5"/>
        </g>
        <path id="Trazado_172" data-name="Trazado 172" d="M370.218,252.635l2.653,3.954c-4.257,3.375-11.8,7.815-15.97,8.379s-6.735-.1-7.185-2.593c-.342-1.9,3.015-5.144,4.644-6.593.513-.454.857-.733.857-.733l.853,1.845s-4.918,5.073-1.614,5.676c.1.019.222.035.342.046,3.966.317,15.266-10.321,15.266-10.321" transform="translate(-274.499 -129.741)" fill="#34254c"/>
        <path id="Trazado_173" data-name="Trazado 173" d="M353.644,261.367l0,0s-3.026.246-2.9-2.006c.069-1.233,1.511-3.226,2.8-4.784.513-.454.857-.733.857-.733l.853,1.845S350.339,260.764,353.644,261.367Z" transform="translate(-273.687 -128.539)" fill="#51347f"/>
        <path id="Trazado_174" data-name="Trazado 174" d="M409.411,253.573a12.309,12.309,0,0,1-4.275,3.5c-5.351,3.012-16.224.546-16.224.546l-1.236-5.8s6.983,3.73,13.959,3.255a13.378,13.378,0,0,0,3.725-.715c2.4-.892,2.838-2.37,2.167-3.333-.933-1.337-6.942-.284-6.942-.284l.144-4.86a26.8,26.8,0,0,1,5.252.857,5.986,5.986,0,0,1,3.347,1.921A4.084,4.084,0,0,1,409.411,253.573Z" transform="translate(-245.11 -134.707)" fill="#34254c"/>
        <path id="Trazado_175" data-name="Trazado 175" d="M401.7,253.2a5.927,5.927,0,0,1-4.051.779c4.564-1.368,1.815-5.947.621-7.62a5.986,5.986,0,0,1,3.347,1.921A4.084,4.084,0,0,1,401.7,253.2Z" transform="translate(-237.396 -134.333)" fill="#51347f"/>
        <g id="Grupo_21856" data-name="Grupo 21856" transform="translate(73.116 43.452)">
          <path id="Trazado_176" data-name="Trazado 176" d="M360.666,218.077s-8.271,3.7-7.293,22.141,16.212,28.053,16.212,28.053l.266,3.906s-11.745-3.684-18.374-18.652-1.447-33.544,8.948-37.338Z" transform="translate(-348.52 -201.129)" fill="url(#linear-gradient-13)"/>
          <path id="Trazado_177" data-name="Trazado 177" d="M383.6,212.034s10.624,4.04,15.261,18.583-3.647,24.642-11.9,31.091l2.669,6.266s14.537-8.842,16-24.362-9.331-29.922-20.112-35.915Z" transform="translate(-321.378 -207.697)" fill="url(#linear-gradient-14)"/>
          <path id="Trazado_178" data-name="Trazado 178" d="M411.926,271.261c-.057.837-7.373,2.111-10.211,2.632a315.469,315.469,0,0,1-35.114,4.385.936.936,0,0,1-.956-.651,163.619,163.619,0,0,1-6.226-28.606q-.551-4.323-.9-8.705a1.926,1.926,0,0,1,1.4-2A169.28,169.28,0,0,1,406,231.459a1.935,1.935,0,0,1,1.882,1.511C410.389,244.139,412.344,265.065,411.926,271.261Z" transform="translate(-340.788 -189.313)" fill="url(#linear-gradient-15)"/>
          <path id="Trazado_179" data-name="Trazado 179" d="M411.671,269.856c-.057.837-7.373,2.109-10.211,2.63a315.422,315.422,0,0,1-35.112,4.386.936.936,0,0,1-.958-.651,163.626,163.626,0,0,1-6.226-28.606q-.551-4.323-.9-8.705a1.924,1.924,0,0,1,1.394-2,169.28,169.28,0,0,1,46.081-6.854,1.935,1.935,0,0,1,1.882,1.511C410.135,242.734,412.089,263.658,411.671,269.856Z" transform="translate(-340.984 -190.4)" fill="url(#linear-gradient-16)"/>
          <path id="Trazado_180" data-name="Trazado 180" d="M401.066,264.826a315.215,315.215,0,0,1-34.631,4.353,1.543,1.543,0,0,1-1.582-1.077,163.831,163.831,0,0,1-6.082-28.147C364.848,250.478,378.243,267.227,401.066,264.826Z" transform="translate(-340.59 -182.739)" fill="url(#linear-gradient-17)"/>
          <path id="Trazado_181" data-name="Trazado 181" d="M361.958,238.846s2.519,16.369,5.119,25.724l3.331-.507s-2.8-16.35-3.484-26.4Z" transform="translate(-338.123 -184.51)" fill="url(#linear-gradient-18)"/>
          <path id="Trazado_182" data-name="Trazado 182" d="M369.593,237.1s2.334,17.783,4.6,26.32l3.888-.545s-2.815-16.63-3.5-26.676Z" transform="translate(-332.216 -185.648)" fill="url(#linear-gradient-19)"/>
          <path id="Trazado_183" data-name="Trazado 183" d="M366.249,238.892s.7,6.119,1.541,10.268l3.331-.507-1.541-10.268A20.976,20.976,0,0,0,366.249,238.892Z" transform="translate(-334.804 -183.954)" fill="url(#linear-gradient-20)"/>
          <path id="Trazado_184" data-name="Trazado 184" d="M384.726,239.174a2.937,2.937,0,1,1-3.131-2.73A2.938,2.938,0,0,1,384.726,239.174Z" transform="translate(-325.047 -185.461)" fill="url(#linear-gradient-21)"/>
          <path id="Trazado_185" data-name="Trazado 185" d="M385.838,246.211a2.937,2.937,0,1,1-3.129-2.73A2.937,2.937,0,0,1,385.838,246.211Z" transform="translate(-324.187 -180.017)" fill="url(#linear-gradient-22)"/>
        </g>
        <path id="Trazado_186" data-name="Trazado 186" d="M391.867,227a6.014,6.014,0,1,1-6.41-5.591A6.014,6.014,0,0,1,391.867,227Z" transform="translate(-251.163 -153.646)" fill="url(#linear-gradient-23)"/>
        <path id="Trazado_187" data-name="Trazado 187" d="M359.047,238.061c2.746-.637,9.422-1.983,16.71-3.569a1.791,1.791,0,0,0,1.414-2.371l-1.389-4.587a1.423,1.423,0,0,0-1.621-1.114c-3.29.543-11.825,1.105-17.09,2.864-.665.224-1.376.374-.984,2.529a39.317,39.317,0,0,0,1.291,5.312A1.422,1.422,0,0,0,359.047,238.061Z" transform="translate(-269.637 -149.774)" fill="url(#linear-gradient-24)"/>
        <g id="Grupo_21857" data-name="Grupo 21857" transform="translate(67.622)">
          <path id="Trazado_188" data-name="Trazado 188" d="M355.368,223.865a28.161,28.161,0,0,0,2.861,6.589s28.654,13.186,50.979-13.008c0,0-1.536-6.064-3.4-8.741C405.808,208.705,392.4,230.814,355.368,223.865Z" transform="translate(-337.729 -163.465)" fill="url(#linear-gradient-25)"/>
          <path id="Trazado_189" data-name="Trazado 189" d="M352.179,202.369s-5.662,3.2-6.47,3.806c-1.756,1.314,5.06,20.422,7.567,20.511,1.506.053,6.6-1.781,6.6-1.781Z" transform="translate(-345.423 -168.367)" fill="url(#linear-gradient-26)"/>
          <path id="Trazado_190" data-name="Trazado 190" d="M349.163,206.057a1.119,1.119,0,1,1-1.194-1.039A1.118,1.118,0,0,1,349.163,206.057Z" transform="translate(-344.259 -166.321)" fill="#c8b8d3"/>
          <path id="Trazado_191" data-name="Trazado 191" d="M381.685,192.381s6.453-.818,7.462-.816c2.192,0,8.152,19.4,6.194,20.965-1.174.944-6.355,2.519-6.355,2.519Z" transform="translate(-317.367 -176.726)" fill="url(#linear-gradient-27)"/>
          <path id="Trazado_192" data-name="Trazado 192" d="M384.532,194.744a1.119,1.119,0,1,0,.335-1.547A1.12,1.12,0,0,0,384.532,194.744Z" transform="translate(-315.303 -175.601)" fill="#c8b8d3"/>
          <path id="Trazado_193" data-name="Trazado 193" d="M357.815,190.5l-.688-2.293c4.221-3.288,9.58-4.881,15.919-5.011l1.325,2.994Z" transform="translate(-336.368 -183.199)" fill="url(#linear-gradient-28)"/>
          <path id="Trazado_194" data-name="Trazado 194" d="M415.129,224.206l-14.021,4.521-42.216,13.611c-16.345-17.668-12.441-46.515,9.126-55.291,1-.408,1.994-.764,2.989-1.077l.012-.005C394.758,178.5,417.052,197.171,415.129,224.206Z" transform="translate(-342.794 -182.34)" fill="url(#linear-gradient-29)"/>
          <path id="Trazado_195" data-name="Trazado 195" d="M401.108,228l-42.216,13.611c-16.345-17.668-12.441-46.515,9.126-55.291,1-.408,1.994-.764,2.989-1.077-14.445,6-15.727,15.683-2.824,11.719s22.175-1.461,22.175-1.461Z" transform="translate(-342.794 -181.615)" fill="url(#linear-gradient-30)"/>
          <path id="Trazado_196" data-name="Trazado 196" d="M410.736,206.8a34.577,34.577,0,0,1-25.382,22.478c-20.422,4.757-30.855-4.346-30.855-4.346Z" transform="translate(-338.401 -164.937)" fill="url(#linear-gradient-31)"/>
          <path id="Trazado_197" data-name="Trazado 197" d="M412.7,219.287a42.687,42.687,0,0,1-12.187,12.407c-9.051,6.2-23.423,11.313-44.05,5.725-8.971-16.857-3.78-33.911,8.9-42.026a29.287,29.287,0,0,1,2.983-1.678C383.994,186.072,407.487,192.167,412.7,219.287Z" transform="translate(-340.365 -177.42)" fill="url(#linear-gradient-32)"/>
          <path id="Trazado_198" data-name="Trazado 198" d="M400.513,229.632c-9.051,6.2-23.423,11.313-44.05,5.725-8.971-16.857-3.78-33.911,8.9-42.026-1.619,3.977-3.748,11.969-1.983,24.174,2.652,18.322,15.334,23.8,37.122,12.134Z" transform="translate(-340.365 -175.359)" fill="url(#linear-gradient-33)"/>
          <path id="Trazado_199" data-name="Trazado 199" d="M366.1,192.463s17.474-2.985,27.23,13.09a2.858,2.858,0,0,1-.78,3.821h0a2.852,2.852,0,0,1-4.129-.919A33.026,33.026,0,0,0,366.1,192.463Z" transform="translate(-329.429 -176.201)" fill="url(#linear-gradient-34)"/>
          <path id="Trazado_200" data-name="Trazado 200" d="M384.9,204.454a2.238,2.238,0,1,1-3.056-.825A2.239,2.239,0,0,1,384.9,204.454Z" transform="translate(-318.112 -167.623)" fill="url(#linear-gradient-35)"/>
        </g>
        <g id="Grupo_21858" data-name="Grupo 21858" transform="translate(49.587 66.655)">
          <path id="Trazado_201" data-name="Trazado 201" d="M411.81,277.626c-.963,1.841-2.341,2.684-3.643,4.4v0A108.905,108.905,0,0,0,396.3,301.268a47.213,47.213,0,0,1-3.67-5.7v0a46.136,46.136,0,0,1,5.491-12.842A50.526,50.526,0,0,0,411.81,277.626Z" transform="translate(-290.864 -176.797)" fill="#2d2244"/>
          <path id="Trazado_202" data-name="Trazado 202" d="M431.678,273.477a41.2,41.2,0,0,0-25.907,15.612c1.043-1.417,2.16-1.962,3.122-3.8a53.192,53.192,0,0,1-13.166,4.5A52.6,52.6,0,0,1,401,282.6c9.622-11.029,25.953-14.106,25.953-14.106A18.6,18.6,0,0,1,431.678,273.477Z" transform="translate(-288.468 -183.861)" fill="url(#linear-gradient-36)"/>
          <path id="Trazado_203" data-name="Trazado 203" d="M365.318,295.583c-.216.069-.335.1-.335.1-.424,2.373-.869,4.514-1.332,6.453a40.44,40.44,0,0,0-6.754-7.9c.4-.325.8-.621,1.2-.889a21.65,21.65,0,0,0,3.159-2.606C363.092,292.775,364.487,294.513,365.318,295.583Z" transform="translate(-318.512 -166.646)" fill="#2d2244"/>
          <path id="Trazado_204" data-name="Trazado 204" d="M378,298.014a21.65,21.65,0,0,1-3.159,2.606c-.4.268-.8.564-1.2.889a58.576,58.576,0,0,0-11.055-7.9c-11.674-6.561-22.036-5.591-27.329-4.363a21.979,21.979,0,0,1,1.483-3.37,26.142,26.142,0,0,1,1.733-2.76v0l.005,0,.064-.09.043-.06.019-.023.02-.027.062-.089c.048-.066.094-.129.144-.192s.092-.128.142-.186c.168-.222.333-.435.5-.635.976-.142,2.111-.271,3.372-.355a37.332,37.332,0,0,1,18,3.022C367.754,287.666,373.943,293.542,378,298.014Z" transform="translate(-335.255 -173.914)" fill="url(#linear-gradient-37)"/>
          <path id="Trazado_205" data-name="Trazado 205" d="M412.19,245.928a21.222,21.222,0,0,1-2.311,1.018,14.025,14.025,0,0,1-1.792.537,47.118,47.118,0,0,1-4.737-7.934,18.63,18.63,0,0,0,4.381-.921A44.474,44.474,0,0,0,412.19,245.928Z" transform="translate(-282.57 -206.969)" fill="#2d2244"/>
          <path id="Trazado_206" data-name="Trazado 206" d="M409.756,252.439a18.63,18.63,0,0,1-4.381.921,52.1,52.1,0,0,1-3.861-30.6h0a17.05,17.05,0,0,1,3.171-1.978c-1.109,6.114-.717,17.253,2.955,26.811C408.328,249.38,409.043,250.994,409.756,252.439Z" transform="translate(-284.596 -220.779)" fill="url(#linear-gradient-38)"/>
          <path id="Trazado_207" data-name="Trazado 207" d="M347.941,249.943a31.218,31.218,0,0,1-3.265,9.188,24.493,24.493,0,0,1-6.852.328,28.855,28.855,0,0,0,5.275-8.409A16.715,16.715,0,0,0,347.941,249.943Z" transform="translate(-333.267 -198.215)" fill="#2d2244"/>
          <path id="Trazado_208" data-name="Trazado 208" d="M345.64,261.257a16.715,16.715,0,0,1-4.842,1.107c4.106-10,2.244-20.589,1.245-24.7a5.316,5.316,0,0,1,1.1,1.387l0,.005c.027.051.039.082.039.082a.055.055,0,0,1,.005-.023v0a8.875,8.875,0,0,1,.929-3.427c.067-.126.137-.245.208-.36C347.079,246.7,346.85,255.2,345.64,261.257Z" transform="translate(-330.966 -209.529)" fill="url(#linear-gradient-39)"/>
        </g>
        <path id="Trazado_209" data-name="Trazado 209" d="M359.121,237.421c2.746-.637,9.727-2.226,16.71-3.569a1.422,1.422,0,0,0,1.123-1.685l-1.1-5.273a1.421,1.421,0,0,0-1.619-1.114c-3.29.543-11.866,2.045-17.13,3.8a1.418,1.418,0,0,0-.945,1.589,37.956,37.956,0,0,0,1.291,5.312A1.422,1.422,0,0,0,359.121,237.421Z" transform="translate(-269.509 -150.269)" fill="url(#linear-gradient-40)"/>
        <g id="Grupo_21859" data-name="Grupo 21859" transform="translate(7.896 59.682)">
          <path id="Trazado_210" data-name="Trazado 210" d="M348.829,273.917a22.175,22.175,0,0,1-7.975,1.54,21.308,21.308,0,0,1-9.441-2.034,2.635,2.635,0,0,1-1.091.983l-.016.011c-1.105.619-3.232,1.21-7.189.7-7.072-.921-9.571-4.675-9.482-7.485a2.308,2.308,0,0,1,1.2-1.862l.009,0c1.772-1.14,5.014-1.362,6.41-1.458,1.953-.133,2.474-.729,1.541-2.066a1.162,1.162,0,0,0-.165-.188c-1.18-1.153-5.089-1.206-7.3-2.387-2.327-1.243-3.652-4.237-3.583-7.325.035-1.522,1.407-2.386,3.239-2.666a11.573,11.573,0,0,1,6.172.9c3.762,1.706,5.119,1.052,5.264-.921.1-1.4-2.786-3.3-5.435-5.119a33.769,33.769,0,0,1-2.912-2.162c-2.682-2.34-1.052-7.217,3.654-8.1a3.723,3.723,0,0,1,1.387-.005h0c3.675.711,5.243,7.033,7.439,6.132,2.453-1.007.626-3.127-2.691-6.545-.435-.451-.882-.938-1.318-1.454-2.891-3.425-5.4-8.09-2.16-10.5a3.335,3.335,0,0,1,2.689-.52c4.117.743,9.972,6.94,13.407,14.562a34.809,34.809,0,0,0,2.962,5.55c1.293,1.83,1.894,1.6,2.13,1.318a.7.7,0,0,0,.128-.215c.892-1.323,1.437-9.771,1.912-15.131.078-.867.177-1.71.305-2.512.665-4.149,2.05-7.27,4.592-7.914a5.484,5.484,0,0,1,1.254-.184c2.206-.037,3.379,1.738,3.907,6a16.683,16.683,0,0,1,.09,3.044c-.218,3.631-1.435,6.87-1.371,11.061.083,5.321,3.272,10.992,4.307,17.93S358.388,270.181,348.829,273.917Z" transform="translate(-311.75 -216.848)" fill="url(#linear-gradient-41)"/>
          <path id="Trazado_211" data-name="Trazado 211" d="M327.481,227.4c-.355,3.006-3.625,3.239-5.777,3.054-.318-.374-.628-.763-.926-1.162-2.446-3.255-4.124-7.191-1.234-9.342a3.335,3.335,0,0,1,2.689-.52c.887,1.086,2.694,2.457,3.943,4.108A5.373,5.373,0,0,1,327.481,227.4Z" transform="translate(-306.898 -214.906)" fill="url(#linear-gradient-42)"/>
          <path id="Trazado_212" data-name="Trazado 212" d="M324.458,233.093c-.557,1.859-2.348,4.541-5.663,3.868-.912-.626-1.795-1.245-2.517-1.829-.138-.112-.27-.224-.4-.333-2.682-2.34-1.052-7.217,3.654-8.1a3.723,3.723,0,0,1,1.387-.005h0a22.38,22.38,0,0,1,2.728,3.5l.005.005A4.038,4.038,0,0,1,324.458,233.093Z" transform="translate(-309.551 -209.277)" fill="url(#linear-gradient-43)"/>
          <path id="Trazado_213" data-name="Trazado 213" d="M324.2,247.823a4.944,4.944,0,0,1-1.561-.092c-.945-.231-1.8-.433-2.6-.644a20.818,20.818,0,0,1-4.7-1.744c-2.327-1.243-3.652-4.237-3.583-7.325.035-1.522,1.407-2.386,3.239-2.666a20.538,20.538,0,0,0,5.229,3.491c.511.186,1.05.4,1.582.649,2.164.983,4.285,2.368,4.6,3.695C326.8,244.841,326.688,247.372,324.2,247.823Z" transform="translate(-311.75 -202.531)" fill="url(#linear-gradient-44)"/>
          <path id="Trazado_214" data-name="Trazado 214" d="M329.5,253.177l-.016.011c-1.007.564-2.866,1.107-6.188.805-.319-.028-.653-.064-1-.11-7.072-.921-9.571-4.675-9.482-7.485a2.308,2.308,0,0,1,1.2-1.862l.009,0c.169-.067,3-1.117,9.709,1.681l.591.252C330.758,249.22,332.323,251.146,329.5,253.177Z" transform="translate(-310.928 -195.62)" fill="url(#linear-gradient-45)"/>
          <path id="Trazado_215" data-name="Trazado 215" d="M329.132,250.372c-.181-.344-5.52-10.672,2.368-19.633,1.293,1.83,1.894,1.6,2.13,1.318l.167.342S326.394,242.988,329.132,250.372Z" transform="translate(-299.796 -206.1)" fill="url(#linear-gradient-46)"/>
          <path id="Trazado_216" data-name="Trazado 216" d="M336.134,273.917a22.175,22.175,0,0,1-7.975,1.54c17.185-3.92,15.016-20.011,12.962-25.009-2.352-5.727-2.905-13.821.172-22.161,2.258-6.128.747-9.879-.215-11.439,2.206-.037,3.379,1.738,3.907,6a16.683,16.683,0,0,1,.09,3.044c-.218,3.631-1.435,6.87-1.371,11.061.083,5.321,3.272,10.992,4.307,17.93S345.692,270.181,336.134,273.917Z" transform="translate(-299.054 -216.848)" fill="url(#linear-gradient-47)"/>
          <path id="Trazado_217" data-name="Trazado 217" d="M341.991,225.892a9.929,9.929,0,0,1-9.844-.945c.665-4.149,2.05-7.27,4.592-7.914,3.031-.768,4.541.811,5.161,5.816A16.683,16.683,0,0,1,341.991,225.892Z" transform="translate(-295.968 -216.847)" fill="url(#linear-gradient-48)"/>
          <path id="Trazado_218" data-name="Trazado 218" d="M326.278,225.594c-.355,3.006-6,4.473-6.7,1.893.566-5.557,3.714-5.954,5.4-5.754A5.373,5.373,0,0,1,326.278,225.594Z" transform="translate(-305.695 -213.098)" fill="url(#linear-gradient-49)"/>
          <path id="Trazado_219" data-name="Trazado 219" d="M323.862,232.125c-.124,4.473-6.524,5.071-8.18,2.04a4.593,4.593,0,0,1,.715-4.613c2.783-3.484,6.508-.452,6.662-.323l.005.005A5.368,5.368,0,0,1,323.862,232.125Z" transform="translate(-308.955 -208.31)" fill="url(#linear-gradient-50)"/>
          <path id="Trazado_220" data-name="Trazado 220" d="M320.738,246.017a4.944,4.944,0,0,1-1.561-.092c-.945-.231-1.8-.433-2.6-.644a7.547,7.547,0,0,1,1.77-7.595c2.164.983,4.285,2.368,4.6,3.695C323.338,243.035,323.23,245.567,320.738,246.017Z" transform="translate(-308.291 -200.725)" fill="url(#linear-gradient-51)"/>
          <path id="Trazado_221" data-name="Trazado 221" d="M325.331,252.226l-.016.011c-1.007.564-2.866,1.107-6.188.805a5.9,5.9,0,0,1-.747-4.613,5.2,5.2,0,0,1,1.777-2.914C326.589,248.269,328.153,250.195,325.331,252.226Z" transform="translate(-306.758 -194.669)" fill="url(#linear-gradient-52)"/>
        </g>
        <g id="Grupo_21860" data-name="Grupo 21860" transform="translate(167.31 41.417)">
          <path id="Trazado_222" data-name="Trazado 222" d="M419.872,262.508a22.173,22.173,0,0,0,8.122.028,21.308,21.308,0,0,0,8.9-3.753,2.628,2.628,0,0,0,1.254.763l.018.005c1.2.4,3.4.589,7.194-.653,6.777-2.219,8.533-6.373,7.925-9.117a2.307,2.307,0,0,0-1.531-1.605l-.009,0c-1.955-.793-5.181-.406-6.57-.241-1.944.232-2.567-.257-1.9-1.745a1.229,1.229,0,0,1,.128-.215c.945-1.352,4.777-2.132,6.729-3.7,2.056-1.653,2.8-4.842,2.159-7.863-.319-1.49-1.827-2.084-3.677-2.017a11.555,11.555,0,0,0-5.9,2.034c-3.377,2.375-4.833,1.985-5.342.074-.362-1.353,2.125-3.758,4.388-6.039a34.088,34.088,0,0,0,2.458-2.666c2.2-2.8-.307-7.288-5.1-7.279a3.713,3.713,0,0,0-1.364.254h0c-3.48,1.382-3.844,7.884-6.169,7.407-2.6-.534-1.2-2.955,1.426-6.93.342-.523.692-1.086,1.025-1.676,2.2-3.9,3.8-8.954.168-10.722a3.343,3.343,0,0,0-2.739-.011c-3.907,1.5-8.508,8.673-10.467,16.8a34.976,34.976,0,0,1-1.877,6c-.931,2.038-1.566,1.919-1.848,1.692a.707.707,0,0,1-.167-.19c-1.121-1.133-3.228-9.333-4.691-14.511-.239-.839-.493-1.648-.768-2.412-1.424-3.95-3.367-6.761-5.983-6.921a5.507,5.507,0,0,0-1.266.051c-2.176.372-3,2.336-2.724,6.623a16.561,16.561,0,0,0,.477,3.006c.89,3.528,2.687,6.483,3.4,10.614.908,5.245-1.172,11.408-.9,18.418S409.786,260.614,419.872,262.508Z" transform="translate(-401.626 -206.55)" fill="url(#linear-gradient-53)"/>
          <path id="Trazado_223" data-name="Trazado 223" d="M416.461,215.644c.908,2.889,4.165,2.508,6.245,1.926.241-.426.474-.864.693-1.313,1.8-3.652,2.714-7.833-.525-9.409a3.343,3.343,0,0,0-2.739-.011c-.67,1.233-2.19,2.916-3.109,4.769A5.361,5.361,0,0,0,416.461,215.644Z" transform="translate(-390.295 -206.55)" fill="url(#linear-gradient-54)"/>
          <path id="Trazado_224" data-name="Trazado 224" d="M420.8,220.492c.894,1.722,3.152,4.025,6.284,2.749.779-.788,1.532-1.559,2.132-2.267.115-.135.224-.27.326-.4,2.2-2.8-.307-7.288-5.1-7.279a3.713,3.713,0,0,0-1.364.254h0a22.42,22.42,0,0,0-2.031,3.946l0,.007A4.04,4.04,0,0,0,420.8,220.492Z" transform="translate(-386.948 -201.331)" fill="url(#linear-gradient-55)"/>
          <path id="Trazado_225" data-name="Trazado 225" d="M425.65,235.086a5,5,0,0,0,1.515-.381c.887-.4,1.692-.759,2.439-1.117A20.742,20.742,0,0,0,433.894,231c2.056-1.653,2.8-4.842,2.159-7.863-.319-1.49-1.827-2.084-3.677-2.017a20.6,20.6,0,0,1-4.489,4.4c-.468.278-.958.594-1.435.933-1.944,1.366-3.771,3.123-3.833,4.486C422.541,232.64,423.117,235.107,425.65,235.086Z" transform="translate(-385.39 -195.28)" fill="url(#linear-gradient-56)"/>
          <path id="Trazado_226" data-name="Trazado 226" d="M422.96,241.406l.018.005c1.094.369,3.022.555,6.231-.358q.463-.13.963-.294c6.777-2.219,8.533-6.373,7.925-9.117a2.307,2.307,0,0,0-1.531-1.605l-.009,0c-.179-.035-3.155-.543-9.227,3.457-.183.121-.36.239-.534.357C420.987,237.752,419.81,239.934,422.96,241.406Z" transform="translate(-386.44 -188.41)" fill="url(#linear-gradient-57)"/>
          <path id="Trazado_227" data-name="Trazado 227" d="M418.318,238.419c.114-.371,3.439-11.511-5.976-18.849-.931,2.038-1.566,1.919-1.848,1.692l-.1.365S419.636,230.656,418.318,238.419Z" transform="translate(-394.844 -196.476)" fill="url(#linear-gradient-58)"/>
          <path id="Trazado_228" data-name="Trazado 228" d="M419.872,262.158a22.174,22.174,0,0,0,8.122.028c-17.615-.654-18.475-16.868-17.388-22.162,1.249-6.064.286-14.119-4.287-21.742-3.361-5.6-2.572-9.569-1.917-11.279-2.176.372-3,2.336-2.724,6.623a16.561,16.561,0,0,0,.477,3.006c.89,3.528,2.687,6.483,3.4,10.614.908,5.245-1.172,11.408-.9,18.418S409.786,260.263,419.872,262.158Z" transform="translate(-401.626 -206.2)" fill="url(#linear-gradient-59)"/>
          <path id="Trazado_229" data-name="Trazado 229" d="M402.154,216.661a9.923,9.923,0,0,0,9.5-2.76c-1.424-3.95-3.367-6.761-5.983-6.921-3.122-.192-4.31,1.641-3.991,6.674A16.561,16.561,0,0,0,402.154,216.661Z" transform="translate(-401.626 -206.228)" fill="url(#linear-gradient-60)"/>
          <path id="Trazado_230" data-name="Trazado 230" d="M416.461,213.543c.908,2.889,6.729,3.28,6.939.614-1.589-5.355-4.759-5.16-6.373-4.651A5.361,5.361,0,0,0,416.461,213.543Z" transform="translate(-390.295 -204.449)" fill="url(#linear-gradient-61)"/>
          <path id="Trazado_231" data-name="Trazado 231" d="M420.758,219.549c.953,4.372,7.352,3.771,8.416.482a4.591,4.591,0,0,0-1.559-4.4c-3.382-2.905-6.479.766-6.607.922l0,.007A5.366,5.366,0,0,0,420.758,219.549Z" transform="translate(-386.91 -200.387)" fill="url(#linear-gradient-62)"/>
          <path id="Trazado_232" data-name="Trazado 232" d="M425.65,232.757a5,5,0,0,0,1.515-.381c.887-.4,1.692-.759,2.439-1.117a7.543,7.543,0,0,0-3.152-7.132c-1.944,1.366-3.771,3.123-3.833,4.486C422.541,230.311,423.117,232.778,425.65,232.757Z" transform="translate(-385.39 -192.952)" fill="url(#linear-gradient-63)"/>
          <path id="Trazado_233" data-name="Trazado 233" d="M422.96,239.726l.018.005c1.094.369,3.022.555,6.231-.358a5.91,5.91,0,0,0-.124-4.672,5.188,5.188,0,0,0-2.288-2.533C420.987,236.072,419.81,238.254,422.96,239.726Z" transform="translate(-386.44 -186.73)" fill="url(#linear-gradient-64)"/>
        </g>
        <g id="Grupo_21862" data-name="Grupo 21862" transform="translate(168.962 176.908)">
          <path id="Trazado_234" data-name="Trazado 234" d="M404.523,358.543s-2.435-8.068-1.884-12.311,24.835-63.374,56.522-63.292Z" transform="translate(-402.558 -282.939)" fill="#aca5b5"/>
          <path id="Trazado_235" data-name="Trazado 235" d="M411.272,378.951s-7.084-5.653-7.737-24.271,37.258-83.443,60.332-69.878Z" transform="translate(-401.809 -282.93)" fill="url(#linear-gradient-65)"/>
          <path id="Trazado_236" data-name="Trazado 236" d="M468.173,307.866c-.005.759-.027,1.532-.057,2.322a116.087,116.087,0,0,1-1.165,12.513q-.16,1.1-.346,2.237c-.631,3.867-1.47,7.911-2.544,12.091-.186.717-.376,1.438-.575,2.164a149.3,149.3,0,0,1-4.727,14.349q-.4,1.04-.825,2.089c-1.669,4.142-3.576,8.345-5.74,12.576-.344.674-.693,1.344-1.05,2.02q-2.889,5.443-6.369,10.917c-.19.3-.385.6-.58.906l-.005.005c-.477.287-.954.559-1.437.812-16.792,8.863-37.029-2.641-37.107-11.084,0-.083,0-.176.007-.277a18.8,18.8,0,0,1,.294-2.253c.482-2.682,1.509-6.893,2.955-11.964.2-.7.408-1.421.624-2.153,1.18-4.014,2.588-8.464,4.161-13.056.241-.7.488-1.406.734-2.116,1.657-4.72,3.478-9.537,5.4-14.143.289-.7.584-1.389.876-2.072,1.731-4.021,3.531-7.836,5.36-11.231.369-.683.741-1.35,1.11-2,.447-.779.894-1.532,1.341-2.253a95.108,95.108,0,0,1,5.844-8.418c.5-.642,1.006-1.272,1.511-1.878a55.643,55.643,0,0,1,11.547-10.795q1.3-.873,2.575-1.555c4.6-2.49,8.821-3.147,12.182-1.8,1.642.66,3.118,3.045,4.193,6.813.227.786.435,1.634.621,2.535A68.89,68.89,0,0,1,468.173,307.866Z" transform="translate(-400.168 -282.787)" fill="url(#linear-gradient-66)"/>
          <g id="Grupo_21861" data-name="Grupo 21861" transform="translate(5.486 2.833)">
            <path id="Trazado_237" data-name="Trazado 237" d="M448.765,292.085l-19.571-5.993q1.3-.873,2.575-1.555l16.375,5.014C448.371,290.336,448.579,291.184,448.765,292.085Z" transform="translate(-387.436 -284.536)" fill="#988ca5"/>
            <path id="Trazado_238" data-name="Trazado 238" d="M455.651,301.394c-.005.759-.027,1.532-.057,2.322l-33.762-10.339c.5-.642,1.006-1.272,1.511-1.878Z" transform="translate(-393.132 -279.149)" fill="#988ca5"/>
            <path id="Trazado_239" data-name="Trazado 239" d="M458.047,310.756q-.16,1.1-.346,2.237l-40.547-12.418c.369-.683.741-1.35,1.11-2Z" transform="translate(-396.75 -273.675)" fill="#988ca5"/>
            <path id="Trazado_240" data-name="Trazado 240" d="M457.878,319.312c-.186.717-.376,1.438-.575,2.164l-43.665-13.37c.289-.7.584-1.389.876-2.072Z" transform="translate(-399.471 -267.903)" fill="#988ca5"/>
            <path id="Trazado_241" data-name="Trazado 241" d="M455.252,328.752q-.4,1.04-.825,2.089l-44.247-13.549c.241-.7.488-1.406.734-2.116Z" transform="translate(-402.146 -260.83)" fill="#988ca5"/>
            <path id="Trazado_242" data-name="Trazado 242" d="M450.775,336.8c-.344.674-.693,1.344-1.05,2.02l-42.242-12.936c.2-.7.408-1.421.624-2.153Z" transform="translate(-404.234 -254.212)" fill="#988ca5"/>
            <path id="Trazado_243" data-name="Trazado 243" d="M444.773,343.578c-.19.3-.385.6-.58.906l-.005.005c-.477.287-.954.559-1.437.812l-37.1-11.36a18.8,18.8,0,0,1,.294-2.253Z" transform="translate(-405.651 -248.054)" fill="#988ca5"/>
          </g>
        </g>
        <g id="Grupo_21864" data-name="Grupo 21864" transform="translate(0 236.925)">
          <path id="Trazado_244" data-name="Trazado 244" d="M399.566,347.977s-3.175-7.808-6.27-10.763-59.133-33.707-83.736-13.739Z" transform="translate(-305.548 -316.776)" fill="#aca5b5"/>
          <path id="Trazado_245" data-name="Trazado 245" d="M407.9,368.017s1.96-8.849-9.227-23.746-81.409-41.519-90.84-16.469Z" transform="translate(-306.886 -316.22)" fill="url(#linear-gradient-67)"/>
          <path id="Trazado_246" data-name="Trazado 246" d="M318.192,348.374q.724.881,1.5,1.772a116.315,116.315,0,0,0,8.767,9c.544.505,1.1,1.015,1.674,1.522,2.919,2.613,6.114,5.232,9.573,7.811.6.44,1.2.883,1.809,1.323A149.245,149.245,0,0,0,354.21,378q.966.559,1.955,1.107c3.9,2.174,8.024,4.248,12.364,6.18.692.309,1.385.612,2.088.912q5.667,2.424,11.813,4.495c.337.115.677.227,1.02.339l.009,0q.825-.112,1.626-.27c18.634-3.652,27.154-25.318,21.91-31.934-.053-.066-.114-.137-.179-.213a19.037,19.037,0,0,0-1.644-1.566c-2.061-1.784-5.506-4.417-9.814-7.451-.6-.42-1.211-.85-1.839-1.284-3.439-2.382-7.331-4.959-11.44-7.545-.628-.394-1.263-.788-1.9-1.185-4.255-2.632-8.7-5.236-13.086-7.613-.662-.36-1.325-.713-1.983-1.062-3.872-2.042-7.669-3.879-11.226-5.369-.715-.3-1.424-.587-2.121-.86-.835-.326-1.658-.631-2.458-.912a95.056,95.056,0,0,0-9.833-2.877c-.8-.184-1.582-.357-2.357-.511a55.551,55.551,0,0,0-15.765-1.148q-1.562.141-2.98.408c-5.146.952-8.842,3.091-10.609,6.252-.865,1.545-.513,4.33,1.016,7.935q.476,1.133,1.109,2.363A69.038,69.038,0,0,0,318.192,348.374Z" transform="translate(-307.298 -315.001)" fill="url(#linear-gradient-68)"/>
          <g id="Grupo_21863" data-name="Grupo 21863" transform="translate(1.479 4.233)">
            <path id="Trazado_247" data-name="Trazado 247" d="M309.241,336.121,320.7,319.163q-1.562.141-2.98.408l-9.592,14.188Q308.608,334.892,309.241,336.121Z" transform="translate(-308.132 -319.163)" fill="#988ca5"/>
            <path id="Trazado_248" data-name="Trazado 248" d="M313.44,347.8q.724.881,1.5,1.772l19.775-29.254c-.8-.184-1.582-.357-2.357-.511Z" transform="translate(-304.025 -318.662)" fill="#988ca5"/>
            <path id="Trazado_249" data-name="Trazado 249" d="M319.231,356.7c.544.505,1.1,1.015,1.674,1.522l23.746-35.13c-.715-.3-1.424-.587-2.121-.86Z" transform="translate(-299.545 -316.787)" fill="#988ca5"/>
            <path id="Trazado_250" data-name="Trazado 250" d="M325.572,363.318c.6.44,1.2.883,1.809,1.323l25.573-37.833c-.662-.36-1.325-.713-1.983-1.062Z" transform="translate(-294.639 -314.07)" fill="#988ca5"/>
            <path id="Trazado_251" data-name="Trazado 251" d="M333.747,369.052q.966.559,1.955,1.107l25.914-38.337c-.628-.394-1.263-.788-1.9-1.185Z" transform="translate(-288.314 -310.286)" fill="#988ca5"/>
            <path id="Trazado_252" data-name="Trazado 252" d="M341.82,372.53c.692.309,1.385.612,2.088.912l24.741-36.6c-.6-.42-1.211-.85-1.839-1.284Z" transform="translate(-282.068 -306.478)" fill="#988ca5"/>
            <path id="Trazado_253" data-name="Trazado 253" d="M349.657,374.126c.337.115.677.227,1.02.339l.009,0q.825-.112,1.626-.27l21.731-32.146a19.037,19.037,0,0,0-1.644-1.566Z" transform="translate(-276.004 -302.667)" fill="#988ca5"/>
          </g>
        </g>
      </g>
      <path id="Trazado_254" data-name="Trazado 254" d="M543.075,370.489c-.186-.9-.394-1.749-.621-2.535-1.075-3.767-2.551-6.153-4.193-6.813a9.947,9.947,0,0,0-3.753-.681,13.163,13.163,0,0,0-1.7-.27l.06-.083c-.378,0-.752.009-1.128.025a16.582,16.582,0,0,0-4.487.576c-7.047,1.515-13.654,5.78-19.624,11.426-.429-3.636-1.256-10.821-1.935-17.884a31.709,31.709,0,0,0-5.594-14.78,18.6,18.6,0,0,0-4.725-4.982s-4.528-17.074-15.178-21.112c-.2-.08-.4-.153-.6-.224-.106-.039-.213-.074-.316-.112l-.009,0a24.184,24.184,0,0,0-9.991-1.469h0a8.86,8.86,0,0,0-1.882.266l-.062.012c-.158.034-.312.066-.461.1a12.327,12.327,0,0,0-2.274.775l-.025.012c-.184.075-.372.153-.569.239l.048-.073.046-.075.011-.019c.018-.027.034-.059.051-.09l.012-.025c.018-.034.035-.071.055-.108l.014-.032c.018-.041.037-.082.057-.128l.012-.032c.02-.048.041-.1.06-.153l.007-.023a6.112,6.112,0,0,0,.247-.9l.011-.053c.012-.075.027-.154.039-.234l.014-.1c.012-.078.023-.16.032-.243l.014-.119c.009-.085.016-.17.023-.261l.011-.129c.005-.094.011-.188.016-.287l0-.128c0-.106.007-.213.007-.326v-.064c0-.291-.007-.6-.027-.933-.012-.2-.027-.41-.048-.628-.037-.383-.089-.795-.154-1.231a10.428,10.428,0,0,0,2.765-1.02,12.309,12.309,0,0,0,4.275-3.5,4.084,4.084,0,0,0-.083-4.92,5.986,5.986,0,0,0-3.347-1.921,26.6,26.6,0,0,0-5.2-.853,35.607,35.607,0,0,0-.451-5.271c-.039-.231-.08-.463-.122-.694l0,0a21.044,21.044,0,0,0-.961-3.468s1.052.722,2.8,1.657c.1.059.186.1.259.145.032.014.064.032.1.05.1.055.156.078.156.078l0,0c4.051,2.109,11.176,5,17.659,3.5a14.025,14.025,0,0,0,1.792-.537,21.222,21.222,0,0,0,2.311-1.018,18.465,18.465,0,0,0,8.1-7.985,22.136,22.136,0,0,0,6.368-.225,21.308,21.308,0,0,0,8.9-3.753,2.628,2.628,0,0,0,1.254.763l.018.005c.073.025.149.048.229.071l.067.018c.059.016.119.032.183.046l.092.02c.059.012.119.025.181.035l.108.018c.062.011.124.02.19.028l.121.014c.066.009.135.016.2.021l.13.011c.073.005.147.009.224.012l.135.005c.08,0,.163,0,.248,0,.044,0,.089,0,.135,0,.092,0,.188,0,.284-.007l.128-.005c.11-.007.225-.014.342-.025l.1-.007c.309-.028.639-.069.988-.126l.011,0c.169-.028.342-.06.52-.1l.122-.025c.146-.03.291-.062.44-.1.057-.012.114-.027.17-.041.14-.034.28-.067.426-.106l.2-.053c.087-.025.17-.046.259-.071.073-.02.147-.043.22-.064l.087-.027c.215-.064.431-.129.655-.2,6.779-2.219,8.535-6.373,7.927-9.117a2.307,2.307,0,0,0-1.531-1.605l-.009,0c-1.955-.793-5.181-.406-6.57-.241-1.944.232-2.567-.257-1.9-1.745a1.233,1.233,0,0,1,.128-.215c.887-.4,1.692-.759,2.439-1.117a20.744,20.744,0,0,0,4.291-2.586c2.056-1.653,2.8-4.842,2.159-7.863-.319-1.49-1.827-2.084-3.677-2.017a11.555,11.555,0,0,0-5.9,2.034c-3.377,2.375-4.833,1.985-5.342.074-.362-1.353,2.125-3.758,4.388-6.039l.152-.156a3.658,3.658,0,0,0,1.979-2.111l.028-.035c.1-.124.2-.245.3-.364,2.2-2.8-.307-7.288-5.1-7.279a3.713,3.713,0,0,0-1.364.254h0c-3.48,1.382-3.844,7.884-6.169,7.407-2.6-.534-1.2-2.955,1.426-6.93.342-.523.692-1.086,1.025-1.676l.092-.167a1.627,1.627,0,0,0,.6-1.146l.014-.03c.046-.094.092-.19.137-.286l.037-.078c.043-.092.087-.184.128-.277l.037-.085c.041-.09.083-.183.122-.275l.03-.073c.122-.287.238-.576.344-.864l.053-.14c.023-.067.048-.137.071-.2l.059-.17c.021-.066.041-.129.062-.193s.037-.121.057-.179.037-.126.055-.19.035-.121.051-.183.034-.122.05-.184.03-.122.046-.183.028-.122.043-.183.027-.124.039-.184.025-.119.037-.177.023-.129.034-.193.019-.11.028-.165q.024-.16.043-.319l.016-.169c.007-.066.012-.131.018-.2s.005-.11.009-.163.005-.119.007-.177,0-.11,0-.165,0-.114,0-.169,0-.11-.007-.165-.007-.108-.011-.161l-.016-.161c-.005-.053-.012-.1-.021-.156s-.014-.106-.025-.158-.019-.1-.03-.153-.021-.1-.034-.153-.028-.1-.043-.153-.027-.1-.043-.142c-.02-.064-.044-.124-.069-.186s-.053-.135-.083-.2-.048-.1-.075-.156-.046-.083-.069-.124-.051-.092-.08-.137-.053-.082-.08-.121-.06-.085-.092-.128-.06-.076-.091-.115-.069-.08-.106-.121-.066-.071-.1-.106-.08-.078-.121-.115-.071-.066-.11-.1-.094-.076-.142-.113l-.114-.085c-.057-.039-.115-.076-.176-.115l-.1-.066c-.1-.059-.2-.113-.309-.167a3.343,3.343,0,0,0-2.739-.011c-3.907,1.5-8.508,8.673-10.467,16.8a34.976,34.976,0,0,1-1.877,6c-.931,2.038-1.566,1.919-1.85,1.692a.72.72,0,0,1-.165-.19c-1.121-1.133-3.228-9.333-4.691-14.511-.239-.839-.493-1.648-.768-2.412-1.424-3.95-3.367-6.761-5.983-6.921-.1-.007-.208-.011-.309-.012-.046,0-.089,0-.135,0s-.108,0-.161,0-.1,0-.145.007-.1.005-.144.011-.092.007-.138.012l-.14.02c-.03.005-.064.007-.094.012l-.027.007c-.112.02-.22.044-.325.073l-.082.023c-.1.032-.206.067-.3.106l-.059.027a2.776,2.776,0,0,0-.25.128l-.053.028a2.678,2.678,0,0,0-.248.172l-.066.051a2.65,2.65,0,0,0-.22.2l-.053.059c-.064.071-.126.145-.184.223l-.035.05a3.087,3.087,0,0,0-.169.266c-.014.028-.03.053-.044.082-.051.1-.1.2-.145.307l-.039.1c-.044.112-.087.229-.126.351l-.021.073c-.032.114-.064.231-.092.353-.007.034-.016.066-.023.1-.028.137-.055.278-.078.426l-.02.126c-.021.151-.041.307-.055.47l-.009.108c-.014.156-.025.318-.032.482l-.005.085c-.007.184-.011.378-.012.575v.135c0,.2,0,.4.011.615l.005.126c.007.225.018.456.034.7a16.561,16.561,0,0,0,.477,3.006c.89,3.528,2.687,6.483,3.4,10.614a17.971,17.971,0,0,1,.225,3.429c-.559.208-1.162.458-1.788.763a17.05,17.05,0,0,0-3.171,1.978h0c-.115.089-.229.183-.342.278v0a.225.225,0,0,0-.036.03l-.011.007-.011.009-.007.009c-.172.144-.341.294-.507.451-.055.051-.108.1-.161.158-.108.1-.215.206-.319.312-.083.087-.165.177-.248.268-.069.074-.138.149-.208.227-.1.112-.193.229-.289.344-.034.041-.069.08-.1.121-.057.069-.115.14-.169.211a21.241,21.241,0,0,0-2.105-2.637,18.634,18.634,0,0,0-7.228-5.035q-.436-1.046-.935-2.059c-.873-6.009-2.487-13.908-3.891-14.956-1.346-1-2.357-2.267-10.291-1.456-.225-.151-.452-.3-.677-.443a21.617,21.617,0,0,0,.988-2.606q.138-1.932.112-3.8c1.513-.488,4.647-1.55,5.527-2.258,1.958-1.568-4-20.963-6.2-20.965-.775,0-4.766.482-6.572.706a32.608,32.608,0,0,0-27.645-13.549l-.883-2c-6.339.129-11.7,1.722-15.919,5.011l.495,1.65c-10.007,5.843-15.2,16.554-15.225,27.755-1.554.885-5.115,2.923-5.743,3.393-1.756,1.314,5.06,20.422,7.567,20.511a26.024,26.024,0,0,0,5.647-1.449c.587.788,1.208,1.561,1.864,2.313-7.24,2.808-11.816,5.142-12.5,6.066-.951,1.273.49,7.249,1.735,11.65-2.54,1.671-5.486,5.149-6.474,12.389q-.077.537-.135,1.105a3.527,3.527,0,0,0-1.463.708,4.933,4.933,0,0,0-1.2,1.346c-.071.115-.14.234-.208.36s-.137.271-.2.417c-.018.039-.034.076-.05.115-.053.128-.106.261-.156.4l-.03.083c-.059.167-.112.344-.161.527l-.027.1c-.044.167-.083.341-.121.52l-.012.059-.007.043c-.027.138-.051.282-.074.429-.007.048-.014.092-.021.14-.027.192-.05.387-.067.591v0a.055.055,0,0,0-.005.023s-.012-.03-.039-.082l0-.005c-.014-.028-.032-.06-.053-.1l-.034-.055-.05-.083-.043-.067c-.023-.035-.046-.071-.073-.11l-.05-.071c-.034-.046-.069-.094-.108-.144l-.05-.066c-.057-.071-.117-.144-.184-.222-.02-.023-.044-.048-.066-.071-.051-.059-.1-.117-.161-.176s-.106-.106-.16-.16c-.023-.021-.043-.043-.066-.064l-.035-.032c-.044-.041-.087-.082-.133-.122-.092-.083-.188-.168-.294-.254l-.009-.009a9.735,9.735,0,0,0-1.066-.75l-.011-.005a13.978,13.978,0,0,0-3.531-1.479c-1.314-4.521-2.976-8.524-3.037-12.347-.064-4.191,1.153-7.43,1.371-11.061a16.683,16.683,0,0,0-.09-3.044c-.028-.239-.062-.468-.1-.692l-.018-.124c-.034-.208-.067-.41-.1-.6l-.025-.135c-.039-.193-.078-.381-.119-.56l-.021-.083c-.037-.161-.078-.318-.121-.468l-.028-.1c-.046-.158-.094-.307-.144-.452l-.041-.119c-.051-.142-.1-.277-.158-.4l-.041-.094c-.05-.114-.1-.225-.156-.33l-.034-.066c-.06-.115-.124-.22-.188-.323l-.057-.087c-.064-.1-.131-.188-.2-.275l-.059-.071c-.069-.082-.142-.16-.215-.231l-.044-.041a2.707,2.707,0,0,0-.223-.186c-.021-.016-.041-.034-.064-.048a2.5,2.5,0,0,0-.252-.16l-.075-.039c-.09-.044-.181-.087-.275-.122l-.059-.018a2.633,2.633,0,0,0-.27-.078l-.064-.016a2.894,2.894,0,0,0-.314-.048l-.087-.009c-.108-.007-.218-.012-.332-.011l-.027,0-.1.005c-.046,0-.092,0-.14.007l-.14.012c-.046.005-.094.011-.142.018s-.094.012-.144.02-.106.018-.16.028-.087.016-.133.025c-.1.02-.2.043-.3.069-2.542.644-3.927,3.766-4.592,7.914-.128.8-.227,1.644-.305,2.512-.475,5.36-1.02,13.808-1.912,15.131a.7.7,0,0,1-.128.215c-.236.279-.837.513-2.13-1.318a34.809,34.809,0,0,1-2.962-5.55c-3.436-7.622-9.291-13.819-13.407-14.562a3.335,3.335,0,0,0-2.689.52c-.1.071-.186.145-.271.22-.032.028-.06.057-.091.085-.053.048-.1.1-.153.145s-.064.071-.1.106-.082.09-.119.137-.06.076-.089.115-.067.09-.1.137-.055.082-.08.124-.055.09-.082.138-.046.085-.067.13-.046.094-.067.142-.039.089-.057.133-.035.1-.053.149-.03.089-.044.135-.028.112-.043.167q-.027.109-.048.218c-.011.064-.023.128-.032.192s-.009.1-.014.149-.011.1-.014.156,0,.1,0,.156,0,.1,0,.154l.005.161c0,.051.005.1.009.156s.009.108.014.163.012.106.02.16.014.108.023.163.02.11.03.165.02.108.032.163.025.114.039.17.025.108.039.161l.053.188c.016.055.032.11.05.167.032.1.064.2.1.3.018.053.039.106.059.158s.044.122.067.183.046.112.069.168.048.115.073.172.051.115.076.172.051.114.078.17l.085.176c.027.055.055.112.083.167l.09.177c.028.055.059.108.087.163s.066.121.1.179.059.1.089.158.071.124.108.186c.025.044.051.087.076.13.16.264.328.527.5.788l.041.062c.055.083.114.165.17.247l.053.078c.059.083.117.165.177.248l.05.069c.064.085.126.172.19.257l.02.025a1.618,1.618,0,0,0,.8,1.015c.041.05.082.1.122.147.436.516.883,1,1.318,1.454,3.317,3.418,5.144,5.537,2.689,6.545-2.194.9-3.762-5.42-7.437-6.132h0a3.723,3.723,0,0,0-1.387.005c-4.706.882-6.336,5.759-3.654,8.1.115.1.236.2.36.3l.035.03a3.66,3.66,0,0,0,2.338,1.7l.179.124c2.648,1.822,5.539,3.721,5.435,5.119-.145,1.972-1.5,2.627-5.264.921a11.573,11.573,0,0,0-6.172-.9c-1.832.28-3.2,1.144-3.239,2.666-.069,3.088,1.256,6.082,3.583,7.325a20.818,20.818,0,0,0,4.7,1.744c.8.211,1.658.413,2.6.644a1.162,1.162,0,0,1,.165.188c.933,1.337.411,1.933-1.541,2.066-1.4.1-4.638.318-6.41,1.458l-.009,0a2.308,2.308,0,0,0-1.2,1.862c-.089,2.81,2.411,6.564,9.482,7.483.234.032.459.057.681.08l.09.009c.076.009.154.018.229.023.09.009.176.014.266.021l.208.016c.147.011.293.018.435.025.059,0,.119.007.177.009q.229.008.447.011c.043,0,.087,0,.128,0,.181,0,.357,0,.527,0h.012c.355-.009.685-.03.995-.06l.1-.011c.117-.012.231-.025.341-.039l.128-.02c.1-.014.188-.028.278-.044.046-.007.09-.016.135-.025.083-.016.165-.032.243-.05l.131-.03c.074-.016.147-.035.218-.053l.124-.034.2-.059.114-.037c.062-.02.122-.041.183-.064l.1-.037c.06-.021.115-.046.172-.069l.087-.035c.059-.027.114-.051.167-.078l.067-.032c.075-.035.144-.073.211-.11l.016-.011a2.635,2.635,0,0,0,1.091-.983,20.75,20.75,0,0,0,7.673,1.976l-.227.321s7.843,8.32,19.138,9.346a24.493,24.493,0,0,0,6.852-.328,26.187,26.187,0,0,0,5.355-1.623s4.794,1.318,11.568-2.527l.014-.009c.617-.351,1.252-.745,1.9-1.187,0,0,.241,1.078.617,2.276.085.273.176.55.273.823l-.007-.016s-.05.039-.137.112c-.058.048-.133.112-.223.19-.135.115-.3.261-.5.431-1.628,1.449-4.986,4.7-4.644,6.593.36,2,2.084,2.818,4.9,2.776-.24.142-1.265.75-2.552,1.543l-.023.011c-1.9,1.164-4.353,2.714-5.7,3.75l-.108.089-.011.007c-2.311,1.839-3.29,4.39-7.219,7.414-3.994,3.076-3.844,5.309-5.378,11.581-.669,2.737-1.392,5.475-1.992,7.694-.78,2.872-1.357,4.871-1.357,4.871a23.872,23.872,0,0,0-2.682,3.083l-.08.108-.028.041c-.039.051-.076.1-.115.158l-.064.09-.005,0v0a26.142,26.142,0,0,0-1.733,2.76,21.979,21.979,0,0,0-1.483,3.37,18.259,18.259,0,0,0-.584,2.061,57.646,57.646,0,0,0-1.11,8.058c-.075,1.082-.121,2.072-.147,2.923-.059,1.907-.023,3.125-.023,3.125a21.307,21.307,0,0,0-1.768,2.469l-.007.009a27.043,27.043,0,0,0-2.473,5.02,21.833,21.833,0,0,0-1.295,5.777c-.529,6.676,6.862,25.1,8.688,29.534-14.587-4.269-30.575-6.215-42.109-.394a16.475,16.475,0,0,0-3.852,2.371c-.3.223-.6.452-.894.688l.1.027a13.41,13.41,0,0,0-1.155,1.281,9.931,9.931,0,0,0-2.492,2.888c-.865,1.545-.513,4.33,1.016,7.935q.476,1.133,1.109,2.363a69.038,69.038,0,0,0,8.306,12.182q.724.881,1.5,1.772a116.315,116.315,0,0,0,8.767,9c.544.505,1.1,1.015,1.674,1.522,2.919,2.613,6.114,5.232,9.574,7.811.594.44,1.2.883,1.807,1.323a149.245,149.245,0,0,0,12.691,8.194q.966.559,1.955,1.107c3.9,2.174,8.024,4.248,12.364,6.18.692.309,1.385.612,2.088.912q5.667,2.424,11.813,4.495c.337.115.677.227,1.02.339l.009,0q.825-.112,1.626-.27c13.62-2.669,21.834-14.961,23.223-23.966a5.655,5.655,0,0,0,.08-.576,11.937,11.937,0,0,0-.548-5.924,43.27,43.27,0,0,0-6.524-14.1,57.837,57.837,0,0,0-3.838-7.6,154.1,154.1,0,0,0-.229-18.714c-.926-9.47-3.952-16.832-3.457-21.912,0,0,4.521-2.086,8.232-17.751.463-1.939.908-4.079,1.332-6.453,0,0,.119-.032.335-.1,1.953-.63,11.932-4.211,15.869-13.06,4.376-9.83,8.766-11.251,11.112-9.729s12.24,10.94,26.77,10.229c0,0,.419.942,1.21,2.386v0a47.213,47.213,0,0,0,3.67,5.7,26.416,26.416,0,0,0,9.119,8.054,96.861,96.861,0,0,1,1.371,20.092c-.224,9.083.809,20.3,3.964,27.152a62.509,62.509,0,0,0,1.449,6.087A43.265,43.265,0,0,0,482,450.777a11.959,11.959,0,0,0,3.3,4.954,5.748,5.748,0,0,0,.424.4c6.738,6.135,20.852,10.539,33.124,4.06.482-.254.96-.525,1.437-.812l.005-.005c.2-.3.39-.6.58-.906q3.488-5.462,6.369-10.917c.356-.676.706-1.346,1.05-2.02,2.166-4.23,4.071-8.434,5.74-12.576q.423-1.048.825-2.089a149.3,149.3,0,0,0,4.727-14.349c.2-.725.388-1.447.575-2.164,1.073-4.181,1.912-8.225,2.543-12.091q.186-1.133.346-2.237a116.088,116.088,0,0,0,1.165-12.513c.03-.789.051-1.563.058-2.322A69,69,0,0,0,543.075,370.489ZM360.252,358.846l-.011.014.014-.02ZM387.6,316.073c-.121-.011-.238-.027-.342-.046a1.764,1.764,0,0,1-.724-.28.989.989,0,0,1-.273-.293,1.051,1.051,0,0,1-.082-.176,1.22,1.22,0,0,1-.064-.392,3.274,3.274,0,0,1,.427-1.419c.085-.167.181-.337.284-.5.2-.337.433-.667.663-.975l.172-.227c.115-.147.227-.287.335-.419.486-.591.874-.991.874-.991A25.161,25.161,0,0,0,387.6,316.073Zm75.178-16.859,0,.012s6.009-1.054,6.942.284c.67.963.229,2.441-2.167,3.333a13.253,13.253,0,0,1-3.631.706c-.3-1.148-.692-2.423-1.2-3.842C462.72,299.708,462.743,299.532,462.775,299.214Z" transform="translate(-307.298 -183.199)" fill="url(#linear-gradient-69)" style="mix-blend-mode: overlay;isolation: isolate"/>
      <path id="Trazado_255" data-name="Trazado 255" d="M543.075,370.489c-.186-.9-.394-1.749-.621-2.535-1.075-3.767-2.551-6.153-4.193-6.813a9.947,9.947,0,0,0-3.753-.681,13.163,13.163,0,0,0-1.7-.27l.06-.083c-.378,0-.752.009-1.128.025a16.582,16.582,0,0,0-4.487.576c-7.047,1.515-13.654,5.78-19.624,11.426-.429-3.636-1.256-10.821-1.935-17.884a31.709,31.709,0,0,0-5.594-14.78,18.6,18.6,0,0,0-4.725-4.982s-4.528-17.074-15.178-21.112c-.2-.08-.4-.153-.6-.224-.106-.039-.213-.074-.316-.112l-.009,0a24.184,24.184,0,0,0-9.991-1.469h0a8.86,8.86,0,0,0-1.882.266l-.062.012c-.158.034-.312.066-.461.1a12.327,12.327,0,0,0-2.274.775l-.025.012c-.184.075-.372.153-.569.239l.048-.073.046-.075.011-.019c.018-.027.034-.059.051-.09l.012-.025c.018-.034.035-.071.055-.108l.014-.032c.018-.041.037-.082.057-.128l.012-.032c.02-.048.041-.1.06-.153l.007-.023a6.112,6.112,0,0,0,.247-.9l.011-.053c.012-.075.027-.154.039-.234l.014-.1c.012-.078.023-.16.032-.243l.014-.119c.009-.085.016-.17.023-.261l.011-.129c.005-.094.011-.188.016-.287l0-.128c0-.106.007-.213.007-.326v-.064c0-.291-.007-.6-.027-.933-.012-.2-.027-.41-.048-.628-.037-.383-.089-.795-.154-1.231a10.428,10.428,0,0,0,2.765-1.02,12.309,12.309,0,0,0,4.275-3.5,4.084,4.084,0,0,0-.083-4.92,5.986,5.986,0,0,0-3.347-1.921,26.6,26.6,0,0,0-5.2-.853,35.607,35.607,0,0,0-.451-5.271c-.039-.231-.08-.463-.122-.694l0,0a21.044,21.044,0,0,0-.961-3.468s1.052.722,2.8,1.657c.1.059.186.1.259.145.032.014.064.032.1.05.1.055.156.078.156.078l0,0c4.051,2.109,11.176,5,17.659,3.5a14.025,14.025,0,0,0,1.792-.537,21.222,21.222,0,0,0,2.311-1.018,18.465,18.465,0,0,0,8.1-7.985,22.136,22.136,0,0,0,6.368-.225,21.308,21.308,0,0,0,8.9-3.753,2.628,2.628,0,0,0,1.254.763l.018.005c.073.025.149.048.229.071l.067.018c.059.016.119.032.183.046l.092.02c.059.012.119.025.181.035l.108.018c.062.011.124.02.19.028l.121.014c.066.009.135.016.2.021l.13.011c.073.005.147.009.224.012l.135.005c.08,0,.163,0,.248,0,.044,0,.089,0,.135,0,.092,0,.188,0,.284-.007l.128-.005c.11-.007.225-.014.342-.025l.1-.007c.309-.028.639-.069.988-.126l.011,0c.169-.028.342-.06.52-.1l.122-.025c.146-.03.291-.062.44-.1.057-.012.114-.027.17-.041.14-.034.28-.067.426-.106l.2-.053c.087-.025.17-.046.259-.071.073-.02.147-.043.22-.064l.087-.027c.215-.064.431-.129.655-.2,6.779-2.219,8.535-6.373,7.927-9.117a2.307,2.307,0,0,0-1.531-1.605l-.009,0c-1.955-.793-5.181-.406-6.57-.241-1.944.232-2.567-.257-1.9-1.745a1.233,1.233,0,0,1,.128-.215c.887-.4,1.692-.759,2.439-1.117a20.744,20.744,0,0,0,4.291-2.586c2.056-1.653,2.8-4.842,2.159-7.863-.319-1.49-1.827-2.084-3.677-2.017a11.555,11.555,0,0,0-5.9,2.034c-3.377,2.375-4.833,1.985-5.342.074-.362-1.353,2.125-3.758,4.388-6.039l.152-.156a3.658,3.658,0,0,0,1.979-2.111l.028-.035c.1-.124.2-.245.3-.364,2.2-2.8-.307-7.288-5.1-7.279a3.713,3.713,0,0,0-1.364.254h0c-3.48,1.382-3.844,7.884-6.169,7.407-2.6-.534-1.2-2.955,1.426-6.93.342-.523.692-1.086,1.025-1.676l.092-.167a1.627,1.627,0,0,0,.6-1.146l.014-.03c.046-.094.092-.19.137-.286l.037-.078c.043-.092.087-.184.128-.277l.037-.085c.041-.09.083-.183.122-.275l.03-.073c.122-.287.238-.576.344-.864l.053-.14c.023-.067.048-.137.071-.2l.059-.17c.021-.066.041-.129.062-.193s.037-.121.057-.179.037-.126.055-.19.035-.121.051-.183.034-.122.05-.184.03-.122.046-.183.028-.122.043-.183.027-.124.039-.184.025-.119.037-.177.023-.129.034-.193.019-.11.028-.165q.024-.16.043-.319l.016-.169c.007-.066.012-.131.018-.2s.005-.11.009-.163.005-.119.007-.177,0-.11,0-.165,0-.114,0-.169,0-.11-.007-.165-.007-.108-.011-.161l-.016-.161c-.005-.053-.012-.1-.021-.156s-.014-.106-.025-.158-.019-.1-.03-.153-.021-.1-.034-.153-.028-.1-.043-.153-.027-.1-.043-.142c-.02-.064-.044-.124-.069-.186s-.053-.135-.083-.2-.048-.1-.075-.156-.046-.083-.069-.124-.051-.092-.08-.137-.053-.082-.08-.121-.06-.085-.092-.128-.06-.076-.091-.115-.069-.08-.106-.121-.066-.071-.1-.106-.08-.078-.121-.115-.071-.066-.11-.1-.094-.076-.142-.113l-.114-.085c-.057-.039-.115-.076-.176-.115l-.1-.066c-.1-.059-.2-.113-.309-.167a3.343,3.343,0,0,0-2.739-.011c-3.907,1.5-8.508,8.673-10.467,16.8a34.976,34.976,0,0,1-1.877,6c-.931,2.038-1.566,1.919-1.85,1.692a.72.72,0,0,1-.165-.19c-1.121-1.133-3.228-9.333-4.691-14.511-.239-.839-.493-1.648-.768-2.412-1.424-3.95-3.367-6.761-5.983-6.921-.1-.007-.208-.011-.309-.012-.046,0-.089,0-.135,0s-.108,0-.161,0-.1,0-.145.007-.1.005-.144.011-.092.007-.138.012l-.14.02c-.03.005-.064.007-.094.012l-.027.007c-.112.02-.22.044-.325.073l-.082.023c-.1.032-.206.067-.3.106l-.059.027a2.776,2.776,0,0,0-.25.128l-.053.028a2.678,2.678,0,0,0-.248.172l-.066.051a2.65,2.65,0,0,0-.22.2l-.053.059c-.064.071-.126.145-.184.223l-.035.05a3.087,3.087,0,0,0-.169.266c-.014.028-.03.053-.044.082-.051.1-.1.2-.145.307l-.039.1c-.044.112-.087.229-.126.351l-.021.073c-.032.114-.064.231-.092.353-.007.034-.016.066-.023.1-.028.137-.055.278-.078.426l-.02.126c-.021.151-.041.307-.055.47l-.009.108c-.014.156-.025.318-.032.482l-.005.085c-.007.184-.011.378-.012.575v.135c0,.2,0,.4.011.615l.005.126c.007.225.018.456.034.7a16.561,16.561,0,0,0,.477,3.006c.89,3.528,2.687,6.483,3.4,10.614a17.971,17.971,0,0,1,.225,3.429c-.559.208-1.162.458-1.788.763a17.05,17.05,0,0,0-3.171,1.978h0c-.115.089-.229.183-.342.278v0a.225.225,0,0,0-.036.03l-.011.007-.011.009-.007.009c-.172.144-.341.294-.507.451-.055.051-.108.1-.161.158-.108.1-.215.206-.319.312-.083.087-.165.177-.248.268-.069.074-.138.149-.208.227-.1.112-.193.229-.289.344-.034.041-.069.08-.1.121-.057.069-.115.14-.169.211a21.241,21.241,0,0,0-2.105-2.637,18.634,18.634,0,0,0-7.228-5.035q-.436-1.046-.935-2.059c-.873-6.009-2.487-13.908-3.891-14.956-1.346-1-2.357-2.267-10.291-1.456-.225-.151-.452-.3-.677-.443a21.617,21.617,0,0,0,.988-2.606q.138-1.932.112-3.8c1.513-.488,4.647-1.55,5.527-2.258,1.958-1.568-4-20.963-6.2-20.965-.775,0-4.766.482-6.572.706a32.608,32.608,0,0,0-27.645-13.549l-.883-2c-6.339.129-11.7,1.722-15.919,5.011l.495,1.65c-10.007,5.843-15.2,16.554-15.225,27.755-1.554.885-5.115,2.923-5.743,3.393-1.756,1.314,5.06,20.422,7.567,20.511a26.024,26.024,0,0,0,5.647-1.449c.587.788,1.208,1.561,1.864,2.313-7.24,2.808-11.816,5.142-12.5,6.066-.951,1.273.49,7.249,1.735,11.65-2.54,1.671-5.486,5.149-6.474,12.389q-.077.537-.135,1.105a3.527,3.527,0,0,0-1.463.708,4.933,4.933,0,0,0-1.2,1.346c-.071.115-.14.234-.208.36s-.137.271-.2.417c-.018.039-.034.076-.05.115-.053.128-.106.261-.156.4l-.03.083c-.059.167-.112.344-.161.527l-.027.1c-.044.167-.083.341-.121.52l-.012.059-.007.043c-.027.138-.051.282-.074.429-.007.048-.014.092-.021.14-.027.192-.05.387-.067.591v0a.055.055,0,0,0-.005.023s-.012-.03-.039-.082l0-.005c-.014-.028-.032-.06-.053-.1l-.034-.055-.05-.083-.043-.067c-.023-.035-.046-.071-.073-.11l-.05-.071c-.034-.046-.069-.094-.108-.144l-.05-.066c-.057-.071-.117-.144-.184-.222-.02-.023-.044-.048-.066-.071-.051-.059-.1-.117-.161-.176s-.106-.106-.16-.16c-.023-.021-.043-.043-.066-.064l-.035-.032c-.044-.041-.087-.082-.133-.122-.092-.083-.188-.168-.294-.254l-.009-.009a9.735,9.735,0,0,0-1.066-.75l-.011-.005a13.978,13.978,0,0,0-3.531-1.479c-1.314-4.521-2.976-8.524-3.037-12.347-.064-4.191,1.153-7.43,1.371-11.061a16.683,16.683,0,0,0-.09-3.044c-.028-.239-.062-.468-.1-.692l-.018-.124c-.034-.208-.067-.41-.1-.6l-.025-.135c-.039-.193-.078-.381-.119-.56l-.021-.083c-.037-.161-.078-.318-.121-.468l-.028-.1c-.046-.158-.094-.307-.144-.452l-.041-.119c-.051-.142-.1-.277-.158-.4l-.041-.094c-.05-.114-.1-.225-.156-.33l-.034-.066c-.06-.115-.124-.22-.188-.323l-.057-.087c-.064-.1-.131-.188-.2-.275l-.059-.071c-.069-.082-.142-.16-.215-.231l-.044-.041a2.707,2.707,0,0,0-.223-.186c-.021-.016-.041-.034-.064-.048a2.5,2.5,0,0,0-.252-.16l-.075-.039c-.09-.044-.181-.087-.275-.122l-.059-.018a2.633,2.633,0,0,0-.27-.078l-.064-.016a2.894,2.894,0,0,0-.314-.048l-.087-.009c-.108-.007-.218-.012-.332-.011l-.027,0-.1.005c-.046,0-.092,0-.14.007l-.14.012c-.046.005-.094.011-.142.018s-.094.012-.144.02-.106.018-.16.028-.087.016-.133.025c-.1.02-.2.043-.3.069-2.542.644-3.927,3.766-4.592,7.914-.128.8-.227,1.644-.305,2.512-.475,5.36-1.02,13.808-1.912,15.131a.7.7,0,0,1-.128.215c-.236.279-.837.513-2.13-1.318a34.809,34.809,0,0,1-2.962-5.55c-3.436-7.622-9.291-13.819-13.407-14.562a3.335,3.335,0,0,0-2.689.52c-.1.071-.186.145-.271.22-.032.028-.06.057-.091.085-.053.048-.1.1-.153.145s-.064.071-.1.106-.082.09-.119.137-.06.076-.089.115-.067.09-.1.137-.055.082-.08.124-.055.09-.082.138-.046.085-.067.13-.046.094-.067.142-.039.089-.057.133-.035.1-.053.149-.03.089-.044.135-.028.112-.043.167q-.027.109-.048.218c-.011.064-.023.128-.032.192s-.009.1-.014.149-.011.1-.014.156,0,.1,0,.156,0,.1,0,.154l.005.161c0,.051.005.1.009.156s.009.108.014.163.012.106.02.16.014.108.023.163.02.11.03.165.02.108.032.163.025.114.039.17.025.108.039.161l.053.188c.016.055.032.11.05.167.032.1.064.2.1.3.018.053.039.106.059.158s.044.122.067.183.046.112.069.168.048.115.073.172.051.115.076.172.051.114.078.17l.085.176c.027.055.055.112.083.167l.09.177c.028.055.059.108.087.163s.066.121.1.179.059.1.089.158.071.124.108.186c.025.044.051.087.076.13.16.264.328.527.5.788l.041.062c.055.083.114.165.17.247l.053.078c.059.083.117.165.177.248l.05.069c.064.085.126.172.19.257l.02.025a1.618,1.618,0,0,0,.8,1.015c.041.05.082.1.122.147.436.516.883,1,1.318,1.454,3.317,3.418,5.144,5.537,2.689,6.545-2.194.9-3.762-5.42-7.437-6.132h0a3.723,3.723,0,0,0-1.387.005c-4.706.882-6.336,5.759-3.654,8.1.115.1.236.2.36.3l.035.03a3.66,3.66,0,0,0,2.338,1.7l.179.124c2.648,1.822,5.539,3.721,5.435,5.119-.145,1.972-1.5,2.627-5.264.921a11.573,11.573,0,0,0-6.172-.9c-1.832.28-3.2,1.144-3.239,2.666-.069,3.088,1.256,6.082,3.583,7.325a20.818,20.818,0,0,0,4.7,1.744c.8.211,1.658.413,2.6.644a1.162,1.162,0,0,1,.165.188c.933,1.337.411,1.933-1.541,2.066-1.4.1-4.638.318-6.41,1.458l-.009,0a2.308,2.308,0,0,0-1.2,1.862c-.089,2.81,2.411,6.564,9.482,7.483.234.032.459.057.681.08l.09.009c.076.009.154.018.229.023.09.009.176.014.266.021l.208.016c.147.011.293.018.435.025.059,0,.119.007.177.009q.229.008.447.011c.043,0,.087,0,.128,0,.181,0,.357,0,.527,0h.012c.355-.009.685-.03.995-.06l.1-.011c.117-.012.231-.025.341-.039l.128-.02c.1-.014.188-.028.278-.044.046-.007.09-.016.135-.025.083-.016.165-.032.243-.05l.131-.03c.074-.016.147-.035.218-.053l.124-.034.2-.059.114-.037c.062-.02.122-.041.183-.064l.1-.037c.06-.021.115-.046.172-.069l.087-.035c.059-.027.114-.051.167-.078l.067-.032c.075-.035.144-.073.211-.11l.016-.011a2.635,2.635,0,0,0,1.091-.983,20.75,20.75,0,0,0,7.673,1.976l-.227.321s7.843,8.32,19.138,9.346a24.493,24.493,0,0,0,6.852-.328,26.187,26.187,0,0,0,5.355-1.623s4.794,1.318,11.568-2.527l.014-.009c.617-.351,1.252-.745,1.9-1.187,0,0,.241,1.078.617,2.276.085.273.176.55.273.823l-.007-.016s-.05.039-.137.112c-.058.048-.133.112-.223.19-.135.115-.3.261-.5.431-1.628,1.449-4.986,4.7-4.644,6.593.36,2,2.084,2.818,4.9,2.776-.24.142-1.265.75-2.552,1.543l-.023.011c-1.9,1.164-4.353,2.714-5.7,3.75l-.108.089-.011.007c-2.311,1.839-3.29,4.39-7.219,7.414-3.994,3.076-3.844,5.309-5.378,11.581-.669,2.737-1.392,5.475-1.992,7.694-.78,2.872-1.357,4.871-1.357,4.871a23.872,23.872,0,0,0-2.682,3.083l-.08.108-.028.041c-.039.051-.076.1-.115.158l-.064.09-.005,0v0a26.142,26.142,0,0,0-1.733,2.76,21.979,21.979,0,0,0-1.483,3.37,18.259,18.259,0,0,0-.584,2.061,57.646,57.646,0,0,0-1.11,8.058c-.075,1.082-.121,2.072-.147,2.923-.059,1.907-.023,3.125-.023,3.125a21.307,21.307,0,0,0-1.768,2.469l-.007.009a27.043,27.043,0,0,0-2.473,5.02,21.833,21.833,0,0,0-1.295,5.777c-.529,6.676,6.862,25.1,8.688,29.534-14.587-4.269-30.575-6.215-42.109-.394a16.475,16.475,0,0,0-3.852,2.371c-.3.223-.6.452-.894.688l.1.027a13.41,13.41,0,0,0-1.155,1.281,9.931,9.931,0,0,0-2.492,2.888c-.865,1.545-.513,4.33,1.016,7.935q.476,1.133,1.109,2.363a69.038,69.038,0,0,0,8.306,12.182q.724.881,1.5,1.772a116.315,116.315,0,0,0,8.767,9c.544.505,1.1,1.015,1.674,1.522,2.919,2.613,6.114,5.232,9.574,7.811.594.44,1.2.883,1.807,1.323a149.245,149.245,0,0,0,12.691,8.194q.966.559,1.955,1.107c3.9,2.174,8.024,4.248,12.364,6.18.692.309,1.385.612,2.088.912q5.667,2.424,11.813,4.495c.337.115.677.227,1.02.339l.009,0q.825-.112,1.626-.27c13.62-2.669,21.834-14.961,23.223-23.966a5.655,5.655,0,0,0,.08-.576,11.937,11.937,0,0,0-.548-5.924,43.27,43.27,0,0,0-6.524-14.1,57.837,57.837,0,0,0-3.838-7.6,154.1,154.1,0,0,0-.229-18.714c-.926-9.47-3.952-16.832-3.457-21.912,0,0,4.521-2.086,8.232-17.751.463-1.939.908-4.079,1.332-6.453,0,0,.119-.032.335-.1,1.953-.63,11.932-4.211,15.869-13.06,4.376-9.83,8.766-11.251,11.112-9.729s12.24,10.94,26.77,10.229c0,0,.419.942,1.21,2.386v0a47.213,47.213,0,0,0,3.67,5.7,26.416,26.416,0,0,0,9.119,8.054,96.861,96.861,0,0,1,1.371,20.092c-.224,9.083.809,20.3,3.964,27.152a62.509,62.509,0,0,0,1.449,6.087A43.265,43.265,0,0,0,482,450.777a11.959,11.959,0,0,0,3.3,4.954,5.748,5.748,0,0,0,.424.4c6.738,6.135,20.852,10.539,33.124,4.06.482-.254.96-.525,1.437-.812l.005-.005c.2-.3.39-.6.58-.906q3.488-5.462,6.369-10.917c.356-.676.706-1.346,1.05-2.02,2.166-4.23,4.071-8.434,5.74-12.576q.423-1.048.825-2.089a149.3,149.3,0,0,0,4.727-14.349c.2-.725.388-1.447.575-2.164,1.073-4.181,1.912-8.225,2.543-12.091q.186-1.133.346-2.237a116.088,116.088,0,0,0,1.165-12.513c.03-.789.051-1.563.058-2.322A69,69,0,0,0,543.075,370.489ZM360.252,358.846l-.011.014.014-.02ZM387.6,316.073c-.121-.011-.238-.027-.342-.046a1.764,1.764,0,0,1-.724-.28.989.989,0,0,1-.273-.293,1.051,1.051,0,0,1-.082-.176,1.22,1.22,0,0,1-.064-.392,3.274,3.274,0,0,1,.427-1.419c.085-.167.181-.337.284-.5.2-.337.433-.667.663-.975l.172-.227c.115-.147.227-.287.335-.419.486-.591.874-.991.874-.991A25.161,25.161,0,0,0,387.6,316.073Zm75.178-16.859,0,.012s6.009-1.054,6.942.284c.67.963.229,2.441-2.167,3.333a13.253,13.253,0,0,1-3.631.706c-.3-1.148-.692-2.423-1.2-3.842C462.72,299.708,462.743,299.532,462.775,299.214Z" transform="translate(-307.298 -183.199)" opacity="0.57" fill="url(#linear-gradient-70)" style="mix-blend-mode: overlay;isolation: isolate"/>
    </g>
  </g>
</svg>
