<svg xmlns="http://www.w3.org/2000/svg" xmlns:xlink="http://www.w3.org/1999/xlink" width="1926.616" height="1077" viewBox="0 0 1926.616 1077">
  <defs>
    <radialGradient id="radial-gradient" cx="0.483" cy="0.471" r="1.188" gradientUnits="objectBoundingBox">
      <stop offset="0" stop-color="#04074a"/>
      <stop offset="1" stop-color="#0089ff"/>
    </radialGradient>
    <linearGradient id="linear-gradient" x1="0.777" y1="0.683" x2="-0.443" y2="-0.122" gradientUnits="objectBoundingBox">
      <stop offset="0" stop-color="#fff"/>
      <stop offset="0.89" stop-color="#1d262d" stop-opacity="0"/>
    </linearGradient>
    <linearGradient id="linear-gradient-2" x1="0.323" y1="0.731" x2="1.043" y2="-0.205" xlink:href="#linear-gradient"/>
    <linearGradient id="linear-gradient-3" x1="0.885" y1="0.262" x2="-0.106" y2="0.874" xlink:href="#linear-gradient"/>
    <linearGradient id="linear-gradient-4" x1="0.324" y1="0.295" x2="1.081" y2="1.173" xlink:href="#linear-gradient"/>
  </defs>
  <g id="Grupo_21873" data-name="Grupo 21873" transform="translate(0)">
    <rect id="Rectángulo_6125" data-name="Rectángulo 6125" width="1920" height="1077" fill="url(#radial-gradient)"/>
    <g id="Grupo_21842" data-name="Grupo 21842" transform="translate(261.246 54.04)">
      <g id="Grupo_21748" data-name="Grupo 21748" transform="translate(285.48 74.313)" opacity="0.42">
        <g id="Grupo_21673" data-name="Grupo 21673" transform="translate(604.69 97.244)">
          <circle id="Elipse_3" data-name="Elipse 3" cx="2.375" cy="2.375" r="2.375" fill="#fff"/>
        </g>
        <g id="Grupo_21674" data-name="Grupo 21674" transform="translate(327.739 184.848)">
          <circle id="Elipse_4" data-name="Elipse 4" cx="2.375" cy="2.375" r="2.375" fill="#fff"/>
        </g>
        <g id="Grupo_21675" data-name="Grupo 21675" transform="translate(641.845 315.879)">
          <circle id="Elipse_5" data-name="Elipse 5" cx="2.375" cy="2.375" r="2.375" fill="#fff"/>
        </g>
        <g id="Grupo_21676" data-name="Grupo 21676" transform="translate(711.443 429.16)">
          <circle id="Elipse_6" data-name="Elipse 6" cx="2.375" cy="2.375" r="2.375" fill="#fff"/>
        </g>
        <g id="Grupo_21677" data-name="Grupo 21677" transform="translate(571.623 266.443)">
          <path id="Trazado_18" data-name="Trazado 18" d="M450.41,182.764a2.374,2.374,0,1,1-2.374-2.374A2.374,2.374,0,0,1,450.41,182.764Z" transform="translate(-445.662 -180.39)" fill="#fff"/>
        </g>
        <g id="Grupo_21678" data-name="Grupo 21678" transform="translate(838.838 245.681)">
          <circle id="Elipse_7" data-name="Elipse 7" cx="2.375" cy="2.375" r="2.375" fill="#fff"/>
        </g>
        <g id="Grupo_21679" data-name="Grupo 21679" transform="translate(508.774 32.409)">
          <path id="Trazado_19" data-name="Trazado 19" d="M419.278,66.828a2.375,2.375,0,1,1-2.374-2.374A2.374,2.374,0,0,1,419.278,66.828Z" transform="translate(-414.528 -64.454)" fill="#fff"/>
        </g>
        <g id="Grupo_21680" data-name="Grupo 21680" transform="translate(356.52 76.482)">
          <path id="Trazado_20" data-name="Trazado 20" d="M343.854,88.661a2.375,2.375,0,1,1-2.376-2.374A2.376,2.376,0,0,1,343.854,88.661Z" transform="translate(-339.104 -86.287)" fill="#fff"/>
        </g>
        <g id="Grupo_21681" data-name="Grupo 21681" transform="translate(279.911 78.453)">
          <circle id="Elipse_8" data-name="Elipse 8" cx="2.375" cy="2.375" r="2.375" fill="#fff"/>
        </g>
        <g id="Grupo_21682" data-name="Grupo 21682" transform="translate(237.874 211.618)">
          <path id="Trazado_21" data-name="Trazado 21" d="M285.077,155.6a2.374,2.374,0,1,1-2.374-2.374A2.373,2.373,0,0,1,285.077,155.6Z" transform="translate(-280.329 -153.231)" fill="#fff"/>
        </g>
        <g id="Grupo_21683" data-name="Grupo 21683" transform="translate(286.972 284.732)">
          <circle id="Elipse_9" data-name="Elipse 9" cx="2.375" cy="2.375" r="2.375" fill="#fff"/>
        </g>
        <g id="Grupo_21684" data-name="Grupo 21684" transform="translate(116.012 460.07)">
          <path id="Trazado_22" data-name="Trazado 22" d="M224.711,278.683a2.375,2.375,0,1,1-2.374-2.374A2.376,2.376,0,0,1,224.711,278.683Z" transform="translate(-219.961 -276.309)" fill="#fff"/>
        </g>
        <g id="Grupo_21685" data-name="Grupo 21685" transform="translate(133.164 413.865)">
          <path id="Trazado_23" data-name="Trazado 23" d="M233.206,255.794a2.374,2.374,0,1,1-2.374-2.374A2.373,2.373,0,0,1,233.206,255.794Z" transform="translate(-228.458 -253.42)" fill="#fff"/>
        </g>
        <g id="Grupo_21686" data-name="Grupo 21686" transform="translate(36.523 673.104)">
          <path id="Trazado_24" data-name="Trazado 24" d="M185.332,384.216a2.374,2.374,0,1,1-2.374-2.374A2.374,2.374,0,0,1,185.332,384.216Z" transform="translate(-180.584 -381.842)" fill="#fff"/>
        </g>
        <g id="Grupo_21687" data-name="Grupo 21687" transform="translate(74.494 595.085)">
          <path id="Trazado_25" data-name="Trazado 25" d="M204.144,345.567a2.375,2.375,0,1,1-2.374-2.374A2.374,2.374,0,0,1,204.144,345.567Z" transform="translate(-199.394 -343.193)" fill="#fff"/>
        </g>
        <g id="Grupo_21688" data-name="Grupo 21688" transform="translate(101.569 815.738)">
          <circle id="Elipse_10" data-name="Elipse 10" cx="2.375" cy="2.375" r="2.375" fill="#fff"/>
        </g>
        <g id="Grupo_21689" data-name="Grupo 21689" transform="translate(15.901 866.993)">
          <path id="Trazado_26" data-name="Trazado 26" d="M175.118,480.265a2.375,2.375,0,1,1-2.376-2.374A2.374,2.374,0,0,1,175.118,480.265Z" transform="translate(-170.368 -477.891)" fill="#fff"/>
        </g>
        <g id="Grupo_21690" data-name="Grupo 21690" transform="translate(428.713 842.86)">
          <path id="Trazado_27" data-name="Trazado 27" d="M379.615,468.31a2.374,2.374,0,1,1-2.374-2.374A2.374,2.374,0,0,1,379.615,468.31Z" transform="translate(-374.867 -465.936)" fill="#fff"/>
        </g>
        <g id="Grupo_21691" data-name="Grupo 21691" transform="translate(586.945 823.962)">
          <path id="Trazado_28" data-name="Trazado 28" d="M458,458.95a2.375,2.375,0,1,1-2.374-2.376A2.375,2.375,0,0,1,458,458.95Z" transform="translate(-453.252 -456.574)" fill="#fff"/>
        </g>
        <g id="Grupo_21692" data-name="Grupo 21692" transform="translate(623.242 730.867)">
          <path id="Trazado_29" data-name="Trazado 29" d="M475.983,412.831a2.375,2.375,0,1,1-2.376-2.374A2.376,2.376,0,0,1,475.983,412.831Z" transform="translate(-471.233 -410.457)" fill="#fff"/>
        </g>
        <g id="Grupo_21693" data-name="Grupo 21693" transform="translate(451.515 708.192)">
          <path id="Trazado_30" data-name="Trazado 30" d="M390.911,401.6a2.374,2.374,0,1,1-2.374-2.374A2.373,2.373,0,0,1,390.911,401.6Z" transform="translate(-386.163 -399.224)" fill="#fff"/>
        </g>
        <g id="Grupo_21694" data-name="Grupo 21694" transform="translate(436.17 652.552)">
          <path id="Trazado_31" data-name="Trazado 31" d="M383.311,374.035a2.375,2.375,0,1,1-2.376-2.374A2.376,2.376,0,0,1,383.311,374.035Z" transform="translate(-378.561 -371.661)" fill="#fff"/>
        </g>
        <g id="Grupo_21695" data-name="Grupo 21695" transform="translate(399.537 654.51)">
          <path id="Trazado_32" data-name="Trazado 32" d="M365.164,375a2.375,2.375,0,1,1-2.374-2.374A2.374,2.374,0,0,1,365.164,375Z" transform="translate(-360.414 -372.631)" fill="#fff"/>
        </g>
        <g id="Grupo_21696" data-name="Grupo 21696" transform="translate(848.202 682.93)">
          <circle id="Elipse_11" data-name="Elipse 11" cx="2.375" cy="2.375" r="2.375" fill="#fff"/>
        </g>
        <g id="Grupo_21697" data-name="Grupo 21697" transform="translate(749.188 665.981)">
          <circle id="Elipse_12" data-name="Elipse 12" cx="2.375" cy="2.375" r="2.375" fill="#fff"/>
        </g>
        <g id="Grupo_21698" data-name="Grupo 21698" transform="translate(854.123 589.505)">
          <path id="Trazado_33" data-name="Trazado 33" d="M590.355,342.8a2.374,2.374,0,1,1-2.374-2.374A2.373,2.373,0,0,1,590.355,342.8Z" transform="translate(-585.607 -340.429)" fill="#fff"/>
        </g>
        <g id="Grupo_21699" data-name="Grupo 21699" transform="translate(881.103 477.016)">
          <circle id="Elipse_13" data-name="Elipse 13" cx="2.375" cy="2.375" r="2.375" fill="#fff"/>
        </g>
        <g id="Grupo_21700" data-name="Grupo 21700" transform="translate(829.695 440.673)">
          <circle id="Elipse_14" data-name="Elipse 14" cx="2.375" cy="2.375" r="2.375" fill="#fff"/>
        </g>
        <g id="Grupo_21701" data-name="Grupo 21701" transform="translate(851.596 339.293)">
          <circle id="Elipse_15" data-name="Elipse 15" cx="2.375" cy="2.375" r="2.375" fill="#fff"/>
        </g>
        <g id="Grupo_21702" data-name="Grupo 21702" transform="translate(864.704 339.328)">
          <circle id="Elipse_16" data-name="Elipse 16" cx="2.375" cy="2.375" r="2.375" fill="#fff"/>
        </g>
        <g id="Grupo_21703" data-name="Grupo 21703" transform="translate(579.642 158.286)">
          <circle id="Elipse_17" data-name="Elipse 17" cx="2.375" cy="2.375" r="2.375" fill="#fff"/>
        </g>
        <g id="Grupo_21704" data-name="Grupo 21704" transform="translate(400.461 234.676)">
          <circle id="Elipse_18" data-name="Elipse 18" cx="2.375" cy="2.375" r="2.375" fill="#fff"/>
        </g>
        <g id="Grupo_21705" data-name="Grupo 21705" transform="translate(523.555 263.071)">
          <circle id="Elipse_19" data-name="Elipse 19" cx="2.375" cy="2.375" r="2.375" fill="#fff"/>
        </g>
        <g id="Grupo_21706" data-name="Grupo 21706" transform="translate(100.973 265.203)">
          <path id="Trazado_34" data-name="Trazado 34" d="M217.259,182.15a2.374,2.374,0,1,1-2.374-2.374A2.374,2.374,0,0,1,217.259,182.15Z" transform="translate(-212.511 -179.776)" fill="#fff"/>
        </g>
        <g id="Grupo_21707" data-name="Grupo 21707" transform="translate(28.534 371.959)">
          <circle id="Elipse_20" data-name="Elipse 20" cx="2.375" cy="2.375" r="2.375" fill="#fff"/>
        </g>
        <g id="Grupo_21708" data-name="Grupo 21708" transform="translate(0 452.201)">
          <path id="Trazado_35" data-name="Trazado 35" d="M167.241,274.785a2.375,2.375,0,1,1-2.376-2.374A2.376,2.376,0,0,1,167.241,274.785Z" transform="translate(-162.491 -272.411)" fill="#fff"/>
        </g>
        <g id="Grupo_21709" data-name="Grupo 21709" transform="translate(17.276 215.769)">
          <path id="Trazado_36" data-name="Trazado 36" d="M175.8,157.661a2.375,2.375,0,1,1-2.376-2.374A2.374,2.374,0,0,1,175.8,157.661Z" transform="translate(-171.049 -155.287)" fill="#fff"/>
        </g>
        <g id="Grupo_21710" data-name="Grupo 21710" transform="translate(30.809 31.23)">
          <path id="Trazado_37" data-name="Trazado 37" d="M182.5,66.244a2.374,2.374,0,1,1-2.374-2.374A2.373,2.373,0,0,1,182.5,66.244Z" transform="translate(-177.753 -63.87)" fill="#fff"/>
        </g>
        <g id="Grupo_21711" data-name="Grupo 21711" transform="translate(95.747 15.838)">
          <circle id="Elipse_21" data-name="Elipse 21" cx="2.375" cy="2.375" r="2.375" fill="#fff"/>
        </g>
        <g id="Grupo_21712" data-name="Grupo 21712" transform="translate(402.238 3.897)">
          <path id="Trazado_38" data-name="Trazado 38" d="M366.5,52.7a2.375,2.375,0,1,1-2.374-2.374A2.374,2.374,0,0,1,366.5,52.7Z" transform="translate(-361.752 -50.33)" fill="#fff"/>
        </g>
        <g id="Grupo_21713" data-name="Grupo 21713" transform="translate(306.784 28.605)">
          <path id="Trazado_39" data-name="Trazado 39" d="M319.216,64.944a2.375,2.375,0,1,1-2.376-2.374A2.374,2.374,0,0,1,319.216,64.944Z" transform="translate(-314.466 -62.57)" fill="#fff"/>
        </g>
        <g id="Grupo_21714" data-name="Grupo 21714" transform="translate(583.453)">
          <circle id="Elipse_22" data-name="Elipse 22" cx="2.375" cy="2.375" r="2.375" fill="#fff"/>
        </g>
        <g id="Grupo_21715" data-name="Grupo 21715" transform="translate(558.494 74.352)">
          <path id="Trazado_40" data-name="Trazado 40" d="M443.908,87.606a2.375,2.375,0,1,1-2.376-2.374A2.376,2.376,0,0,1,443.908,87.606Z" transform="translate(-439.158 -85.232)" fill="#fff"/>
        </g>
        <g id="Grupo_21716" data-name="Grupo 21716" transform="translate(514.394 152.569)">
          <circle id="Elipse_23" data-name="Elipse 23" cx="2.375" cy="2.375" r="2.375" transform="translate(0 0)" fill="#fff"/>
        </g>
        <g id="Grupo_21717" data-name="Grupo 21717" transform="translate(350.773 244.26)">
          <path id="Trazado_41" data-name="Trazado 41" d="M341.007,171.775a2.375,2.375,0,1,1-2.376-2.374A2.374,2.374,0,0,1,341.007,171.775Z" transform="translate(-336.257 -169.401)" fill="#fff"/>
        </g>
        <g id="Grupo_21718" data-name="Grupo 21718" transform="translate(296.145 277.956)">
          <circle id="Elipse_24" data-name="Elipse 24" cx="2.375" cy="2.375" r="2.375" fill="#fff"/>
        </g>
        <g id="Grupo_21719" data-name="Grupo 21719" transform="translate(213.229 381.521)">
          <circle id="Elipse_25" data-name="Elipse 25" cx="2.375" cy="2.375" r="2.375" fill="#fff"/>
        </g>
        <g id="Grupo_21720" data-name="Grupo 21720" transform="translate(198.116 431.395)">
          <circle id="Elipse_26" data-name="Elipse 26" cx="2.375" cy="2.375" r="2.375" fill="#fff"/>
        </g>
        <g id="Grupo_21721" data-name="Grupo 21721" transform="translate(213.375 511.572)">
          <circle id="Elipse_27" data-name="Elipse 27" cx="2.375" cy="2.375" r="2.375" fill="#fff"/>
        </g>
        <g id="Grupo_21722" data-name="Grupo 21722" transform="translate(238.231 572.625)">
          <path id="Trazado_42" data-name="Trazado 42" d="M285.256,334.441a2.375,2.375,0,1,1-2.376-2.374A2.376,2.376,0,0,1,285.256,334.441Z" transform="translate(-280.506 -332.067)" fill="#fff"/>
        </g>
        <g id="Grupo_21723" data-name="Grupo 21723" transform="translate(369.232 608.366)">
          <circle id="Elipse_28" data-name="Elipse 28" cx="2.375" cy="2.375" r="2.375" fill="#fff"/>
        </g>
        <g id="Grupo_21724" data-name="Grupo 21724" transform="translate(472.306 623.649)">
          <circle id="Elipse_29" data-name="Elipse 29" cx="2.375" cy="2.375" r="2.375" fill="#fff"/>
        </g>
        <g id="Grupo_21725" data-name="Grupo 21725" transform="translate(510.785 633.629)">
          <path id="Trazado_43" data-name="Trazado 43" d="M420.274,364.661a2.375,2.375,0,1,1-2.374-2.374A2.374,2.374,0,0,1,420.274,364.661Z" transform="translate(-415.524 -362.287)" fill="#fff"/>
        </g>
        <g id="Grupo_21726" data-name="Grupo 21726" transform="translate(629.049 597.601)">
          <circle id="Elipse_30" data-name="Elipse 30" cx="2.375" cy="2.375" r="2.375" fill="#fff"/>
        </g>
        <g id="Grupo_21727" data-name="Grupo 21727" transform="translate(636.567 525.195)">
          <path id="Trazado_44" data-name="Trazado 44" d="M482.584,310.945a2.375,2.375,0,1,1-2.376-2.374A2.374,2.374,0,0,1,482.584,310.945Z" transform="translate(-477.834 -308.571)" fill="#fff"/>
        </g>
        <g id="Grupo_21728" data-name="Grupo 21728" transform="translate(611.094 387.514)">
          <circle id="Elipse_31" data-name="Elipse 31" cx="2.375" cy="2.375" r="2.375" fill="#fff"/>
        </g>
        <g id="Grupo_21729" data-name="Grupo 21729" transform="translate(578.472 360.544)">
          <path id="Trazado_45" data-name="Trazado 45" d="M453.8,229.382a2.374,2.374,0,1,1-2.374-2.376A2.374,2.374,0,0,1,453.8,229.382Z" transform="translate(-449.055 -227.006)" fill="#fff"/>
        </g>
        <g id="Grupo_21730" data-name="Grupo 21730" transform="translate(578.975 303.109)">
          <circle id="Elipse_32" data-name="Elipse 32" cx="2.375" cy="2.375" r="2.375" fill="#fff"/>
        </g>
        <g id="Grupo_21731" data-name="Grupo 21731" transform="translate(272.449 324.533)">
          <path id="Trazado_46" data-name="Trazado 46" d="M302.2,211.541a2.374,2.374,0,1,1-2.374-2.374A2.373,2.373,0,0,1,302.2,211.541Z" transform="translate(-297.457 -209.167)" fill="#fff"/>
        </g>
        <g id="Grupo_21732" data-name="Grupo 21732" transform="translate(261.207 364.709)">
          <path id="Trazado_47" data-name="Trazado 47" d="M296.636,231.445a2.374,2.374,0,1,1-2.374-2.376A2.375,2.375,0,0,1,296.636,231.445Z" transform="translate(-291.888 -229.069)" fill="#fff"/>
        </g>
        <g id="Grupo_21733" data-name="Grupo 21733" transform="translate(263.274 465.714)">
          <path id="Trazado_48" data-name="Trazado 48" d="M297.66,281.479a2.374,2.374,0,1,1-2.374-2.374A2.374,2.374,0,0,1,297.66,281.479Z" transform="translate(-292.912 -279.105)" fill="#fff"/>
        </g>
        <g id="Grupo_21734" data-name="Grupo 21734" transform="translate(550.139 570.694)">
          <circle id="Elipse_33" data-name="Elipse 33" cx="2.375" cy="2.375" r="2.375" fill="#fff"/>
        </g>
        <g id="Grupo_21735" data-name="Grupo 21735" transform="translate(574.895 543.817)">
          <path id="Trazado_49" data-name="Trazado 49" d="M452.033,320.17a2.375,2.375,0,1,1-2.374-2.374A2.375,2.375,0,0,1,452.033,320.17Z" transform="translate(-447.283 -317.796)" fill="#fff"/>
        </g>
        <g id="Grupo_21736" data-name="Grupo 21736" transform="translate(599.92 526.489)">
          <circle id="Elipse_34" data-name="Elipse 34" cx="2.375" cy="2.375" r="2.375" fill="#fff"/>
        </g>
        <g id="Grupo_21737" data-name="Grupo 21737" transform="translate(651.796 499.954)">
          <path id="Trazado_50" data-name="Trazado 50" d="M490.126,298.441a2.374,2.374,0,1,1-2.374-2.374A2.374,2.374,0,0,1,490.126,298.441Z" transform="translate(-485.378 -296.067)" fill="#fff"/>
        </g>
        <g id="Grupo_21738" data-name="Grupo 21738" transform="translate(683.836 450.392)">
          <path id="Trazado_51" data-name="Trazado 51" d="M506,273.891a2.374,2.374,0,1,1-2.374-2.376A2.374,2.374,0,0,1,506,273.891Z" transform="translate(-501.25 -271.515)" fill="#fff"/>
        </g>
        <g id="Grupo_21739" data-name="Grupo 21739" transform="translate(695.859 400.356)">
          <circle id="Elipse_35" data-name="Elipse 35" cx="2.375" cy="2.375" r="2.375" fill="#fff"/>
        </g>
        <g id="Grupo_21740" data-name="Grupo 21740" transform="translate(700.167 371.263)">
          <path id="Trazado_52" data-name="Trazado 52" d="M514.088,234.692a2.374,2.374,0,1,1-2.374-2.376A2.375,2.375,0,0,1,514.088,234.692Z" transform="translate(-509.34 -232.316)" fill="#fff"/>
        </g>
        <g id="Grupo_21741" data-name="Grupo 21741" transform="translate(647.785 369.951)">
          <path id="Trazado_53" data-name="Trazado 53" d="M488.141,234.042a2.375,2.375,0,1,1-2.376-2.376A2.376,2.376,0,0,1,488.141,234.042Z" transform="translate(-483.391 -231.666)" fill="#fff"/>
        </g>
        <g id="Grupo_21742" data-name="Grupo 21742" transform="translate(670.544 315.098)">
          <circle id="Elipse_36" data-name="Elipse 36" cx="2.375" cy="2.375" r="2.375" fill="#fff"/>
        </g>
        <g id="Grupo_21743" data-name="Grupo 21743" transform="translate(678.206 320.268)">
          <path id="Trazado_54" data-name="Trazado 54" d="M503.211,209.428a2.375,2.375,0,1,1-2.376-2.374A2.376,2.376,0,0,1,503.211,209.428Z" transform="translate(-498.461 -207.054)" fill="#fff"/>
        </g>
        <g id="Grupo_21744" data-name="Grupo 21744" transform="translate(742.696 429.114)">
          <path id="Trazado_55" data-name="Trazado 55" d="M535.158,263.348a2.375,2.375,0,1,1-2.376-2.374A2.376,2.376,0,0,1,535.158,263.348Z" transform="translate(-530.408 -260.974)" fill="#fff"/>
        </g>
        <g id="Grupo_21745" data-name="Grupo 21745" transform="translate(715.54 481.071)">
          <circle id="Elipse_37" data-name="Elipse 37" cx="2.375" cy="2.375" r="2.375" fill="#fff"/>
        </g>
        <g id="Grupo_21746" data-name="Grupo 21746" transform="translate(711.39 478.104)">
          <path id="Trazado_56" data-name="Trazado 56" d="M519.65,287.617a2.375,2.375,0,1,1-2.376-2.374A2.374,2.374,0,0,1,519.65,287.617Z" transform="translate(-514.9 -285.243)" fill="#fff"/>
        </g>
        <g id="Grupo_21747" data-name="Grupo 21747" transform="translate(640.521 649.133)">
          <circle id="Elipse_38" data-name="Elipse 38" cx="2.375" cy="2.375" r="2.375" fill="#fff"/>
        </g>
      </g>
      <g id="Grupo_21776" data-name="Grupo 21776" transform="translate(383.256 190.905)">
        <g id="Grupo_21749" data-name="Grupo 21749" transform="translate(190.141 47.753)">
          <circle id="Elipse_39" data-name="Elipse 39" cx="2.375" cy="2.375" r="2.375" fill="#fff"/>
        </g>
        <g id="Grupo_21750" data-name="Grupo 21750" transform="translate(321.871 91.976)">
          <path id="Trazado_57" data-name="Trazado 57" d="M375.126,154.094a2.375,2.375,0,1,1-2.376-2.374A2.374,2.374,0,0,1,375.126,154.094Z" transform="translate(-370.376 -151.72)" fill="#fff"/>
        </g>
        <g id="Grupo_21751" data-name="Grupo 21751" transform="translate(173.028 145.251)">
          <circle id="Elipse_40" data-name="Elipse 40" cx="2.375" cy="2.375" r="2.375" fill="#fff"/>
        </g>
        <g id="Grupo_21752" data-name="Grupo 21752" transform="translate(196.053 105.099)">
          <path id="Trazado_58" data-name="Trazado 58" d="M312.8,160.595a2.374,2.374,0,1,1-2.374-2.374A2.373,2.373,0,0,1,312.8,160.595Z" transform="translate(-308.048 -158.221)" fill="#fff"/>
        </g>
        <g id="Grupo_21753" data-name="Grupo 21753" transform="translate(458.82 166.065)">
          <path id="Trazado_59" data-name="Trazado 59" d="M442.966,190.8a2.374,2.374,0,1,1-2.374-2.374A2.375,2.375,0,0,1,442.966,190.8Z" transform="translate(-438.218 -188.422)" fill="#fff"/>
        </g>
        <g id="Grupo_21754" data-name="Grupo 21754" transform="translate(165.601 223.149)">
          <circle id="Elipse_41" data-name="Elipse 41" cx="2.375" cy="2.375" r="2.375" fill="#fff"/>
        </g>
        <g id="Grupo_21755" data-name="Grupo 21755" transform="translate(156.182 308.557)">
          <path id="Trazado_60" data-name="Trazado 60" d="M293.045,261.384a2.374,2.374,0,1,1-2.374-2.374A2.374,2.374,0,0,1,293.045,261.384Z" transform="translate(-288.297 -259.01)" fill="#fff"/>
        </g>
        <g id="Grupo_21756" data-name="Grupo 21756" transform="translate(492.994 280.357)">
          <path id="Trazado_61" data-name="Trazado 61" d="M459.895,247.414a2.374,2.374,0,1,1-2.374-2.374A2.373,2.373,0,0,1,459.895,247.414Z" transform="translate(-455.147 -245.04)" fill="#fff"/>
        </g>
        <g id="Grupo_21757" data-name="Grupo 21757" transform="translate(517.973 213.569)">
          <circle id="Elipse_42" data-name="Elipse 42" cx="2.375" cy="2.375" r="2.375" fill="#fff"/>
        </g>
        <g id="Grupo_21758" data-name="Grupo 21758" transform="translate(416.99 95.604)">
          <path id="Trazado_62" data-name="Trazado 62" d="M422.246,155.891a2.375,2.375,0,1,1-2.374-2.374A2.376,2.376,0,0,1,422.246,155.891Z" transform="translate(-417.496 -153.517)" fill="#fff"/>
        </g>
        <g id="Grupo_21759" data-name="Grupo 21759" transform="translate(460.854 26.937)">
          <circle id="Elipse_43" data-name="Elipse 43" cx="2.375" cy="2.375" r="2.375" fill="#fff"/>
        </g>
        <g id="Grupo_21760" data-name="Grupo 21760" transform="translate(283.696 0)">
          <circle id="Elipse_44" data-name="Elipse 44" cx="2.375" cy="2.375" r="2.375" fill="#fff"/>
        </g>
        <g id="Grupo_21761" data-name="Grupo 21761" transform="translate(283.676 44.211)">
          <path id="Trazado_63" data-name="Trazado 63" d="M356.2,130.432a2.375,2.375,0,1,1-2.374-2.374A2.376,2.376,0,0,1,356.2,130.432Z" transform="translate(-351.455 -128.058)" fill="#fff"/>
        </g>
        <g id="Grupo_21762" data-name="Grupo 21762" transform="translate(605.368 344.846)">
          <circle id="Elipse_45" data-name="Elipse 45" cx="2.375" cy="2.375" r="2.375" fill="#fff"/>
        </g>
        <g id="Grupo_21763" data-name="Grupo 21763" transform="translate(567.256 474.145)">
          <path id="Trazado_64" data-name="Trazado 64" d="M496.685,343.413a2.375,2.375,0,1,1-2.374-2.374A2.374,2.374,0,0,1,496.685,343.413Z" transform="translate(-491.935 -341.039)" fill="#fff"/>
        </g>
        <g id="Grupo_21764" data-name="Grupo 21764" transform="translate(571.081 571.291)">
          <circle id="Elipse_46" data-name="Elipse 46" cx="2.375" cy="2.375" r="2.375" fill="#fff"/>
        </g>
        <g id="Grupo_21765" data-name="Grupo 21765" transform="translate(400.031 651.431)">
          <path id="Trazado_65" data-name="Trazado 65" d="M413.843,431.237a2.374,2.374,0,1,1-2.374-2.374A2.373,2.373,0,0,1,413.843,431.237Z" transform="translate(-409.095 -428.863)" fill="#fff"/>
        </g>
        <g id="Grupo_21766" data-name="Grupo 21766" transform="translate(327.277 661.062)">
          <circle id="Elipse_47" data-name="Elipse 47" cx="2.375" cy="2.375" r="2.375" fill="#fff"/>
        </g>
        <g id="Grupo_21767" data-name="Grupo 21767" transform="translate(292.759 598.045)">
          <circle id="Elipse_48" data-name="Elipse 48" cx="2.375" cy="2.375" r="2.375" fill="#fff"/>
        </g>
        <g id="Grupo_21768" data-name="Grupo 21768" transform="translate(373.427 586.574)">
          <circle id="Elipse_49" data-name="Elipse 49" cx="2.375" cy="2.375" r="2.375" fill="#fff"/>
        </g>
        <g id="Grupo_21769" data-name="Grupo 21769" transform="translate(358.201 542.262)">
          <path id="Trazado_66" data-name="Trazado 66" d="M393.123,377.157a2.375,2.375,0,1,1-2.376-2.374A2.374,2.374,0,0,1,393.123,377.157Z" transform="translate(-388.373 -374.783)" fill="#fff"/>
        </g>
        <g id="Grupo_21770" data-name="Grupo 21770" transform="translate(323.29 550.068)">
          <circle id="Elipse_50" data-name="Elipse 50" cx="2.375" cy="2.375" r="2.375" fill="#fff"/>
        </g>
        <g id="Grupo_21771" data-name="Grupo 21771" transform="translate(0 468.496)">
          <circle id="Elipse_51" data-name="Elipse 51" cx="2.375" cy="2.375" r="2.375" fill="#fff"/>
        </g>
        <g id="Grupo_21772" data-name="Grupo 21772" transform="translate(53.442 521.948)">
          <circle id="Elipse_52" data-name="Elipse 52" cx="2.375" cy="2.375" r="2.375" fill="#fff"/>
        </g>
        <g id="Grupo_21773" data-name="Grupo 21773" transform="translate(215.103 468.505)">
          <path id="Trazado_67" data-name="Trazado 67" d="M322.233,340.621a2.374,2.374,0,1,1-2.374-2.376A2.374,2.374,0,0,1,322.233,340.621Z" transform="translate(-317.485 -338.245)" fill="#fff"/>
        </g>
        <g id="Grupo_21774" data-name="Grupo 21774" transform="translate(152.35 348.945)">
          <circle id="Elipse_53" data-name="Elipse 53" cx="2.375" cy="2.375" r="2.375" fill="#fff"/>
        </g>
        <g id="Grupo_21775" data-name="Grupo 21775" transform="translate(39.892 344.81)">
          <path id="Trazado_68" data-name="Trazado 68" d="M235.439,279.343a2.375,2.375,0,1,1-2.374-2.374A2.374,2.374,0,0,1,235.439,279.343Z" transform="translate(-230.689 -276.969)" fill="#fff"/>
        </g>
      </g>
      <g id="Grupo_21804" data-name="Grupo 21804" transform="translate(41.754 22.96)">
        <g id="Grupo_21777" data-name="Grupo 21777" transform="translate(190.143 47.753)">
          <path id="Trazado_69" data-name="Trazado 69" d="M140.695,48.99a2.374,2.374,0,1,1-2.374-2.374A2.374,2.374,0,0,1,140.695,48.99Z" transform="translate(-135.947 -46.616)" fill="#fff"/>
        </g>
        <g id="Grupo_21778" data-name="Grupo 21778" transform="translate(321.872 91.976)">
          <path id="Trazado_70" data-name="Trazado 70" d="M205.953,70.9a2.375,2.375,0,1,1-2.374-2.376A2.375,2.375,0,0,1,205.953,70.9Z" transform="translate(-201.203 -68.523)" fill="#fff"/>
        </g>
        <g id="Grupo_21779" data-name="Grupo 21779" transform="translate(173.029 145.251)">
          <circle id="Elipse_54" data-name="Elipse 54" cx="2.375" cy="2.375" r="2.375" fill="#fff"/>
        </g>
        <g id="Grupo_21780" data-name="Grupo 21780" transform="translate(196.053 105.1)">
          <circle id="Elipse_55" data-name="Elipse 55" cx="2.375" cy="2.375" r="2.375" fill="#fff"/>
        </g>
        <g id="Grupo_21781" data-name="Grupo 21781" transform="translate(458.819 166.064)">
          <path id="Trazado_71" data-name="Trazado 71" d="M273.794,107.6a2.375,2.375,0,1,1-2.374-2.374A2.376,2.376,0,0,1,273.794,107.6Z" transform="translate(-269.044 -105.225)" fill="#fff"/>
        </g>
        <g id="Grupo_21782" data-name="Grupo 21782" transform="translate(165.602 223.15)">
          <circle id="Elipse_56" data-name="Elipse 56" cx="2.375" cy="2.375" r="2.375" fill="#fff"/>
        </g>
        <g id="Grupo_21783" data-name="Grupo 21783" transform="translate(156.183 308.556)">
          <circle id="Elipse_57" data-name="Elipse 57" cx="2.375" cy="2.375" r="2.375" fill="#fff"/>
        </g>
        <g id="Grupo_21784" data-name="Grupo 21784" transform="translate(492.995 280.356)">
          <path id="Trazado_72" data-name="Trazado 72" d="M290.722,164.217a2.374,2.374,0,1,1-2.374-2.374A2.374,2.374,0,0,1,290.722,164.217Z" transform="translate(-285.974 -161.843)" fill="#fff"/>
        </g>
        <g id="Grupo_21785" data-name="Grupo 21785" transform="translate(517.973 213.569)">
          <path id="Trazado_73" data-name="Trazado 73" d="M303.1,131.132a2.375,2.375,0,1,1-2.376-2.374A2.376,2.376,0,0,1,303.1,131.132Z" transform="translate(-298.348 -128.758)" fill="#fff"/>
        </g>
        <g id="Grupo_21786" data-name="Grupo 21786" transform="translate(416.99 95.603)">
          <path id="Trazado_74" data-name="Trazado 74" d="M253.073,72.7A2.375,2.375,0,1,1,250.7,70.32,2.375,2.375,0,0,1,253.073,72.7Z" transform="translate(-248.323 -70.32)" fill="#fff"/>
        </g>
        <g id="Grupo_21787" data-name="Grupo 21787" transform="translate(460.854 26.937)">
          <path id="Trazado_75" data-name="Trazado 75" d="M274.8,38.68a2.375,2.375,0,1,1-2.374-2.376A2.375,2.375,0,0,1,274.8,38.68Z" transform="translate(-270.052 -36.304)" fill="#fff"/>
        </g>
        <g id="Grupo_21788" data-name="Grupo 21788" transform="translate(283.697)">
          <path id="Trazado_76" data-name="Trazado 76" d="M187.04,25.336a2.374,2.374,0,1,1-2.374-2.376A2.374,2.374,0,0,1,187.04,25.336Z" transform="translate(-182.292 -22.96)" fill="#fff"/>
        </g>
        <g id="Grupo_21789" data-name="Grupo 21789" transform="translate(283.677 44.21)">
          <path id="Trazado_77" data-name="Trazado 77" d="M187.032,47.237a2.375,2.375,0,1,1-2.374-2.376A2.375,2.375,0,0,1,187.032,47.237Z" transform="translate(-182.282 -44.861)" fill="#fff"/>
        </g>
        <g id="Grupo_21790" data-name="Grupo 21790" transform="translate(605.369 344.846)">
          <circle id="Elipse_58" data-name="Elipse 58" cx="2.375" cy="2.375" r="2.375" transform="translate(0)" fill="#fff"/>
        </g>
        <g id="Grupo_21791" data-name="Grupo 21791" transform="translate(567.257 474.145)">
          <path id="Trazado_78" data-name="Trazado 78" d="M327.512,260.218a2.375,2.375,0,1,1-2.376-2.376A2.376,2.376,0,0,1,327.512,260.218Z" transform="translate(-322.762 -257.842)" fill="#fff"/>
        </g>
        <g id="Grupo_21792" data-name="Grupo 21792" transform="translate(571.082 571.292)">
          <path id="Trazado_79" data-name="Trazado 79" d="M329.4,308.341a2.374,2.374,0,1,1-2.374-2.374A2.374,2.374,0,0,1,329.4,308.341Z" transform="translate(-324.657 -305.967)" fill="#fff"/>
        </g>
        <g id="Grupo_21793" data-name="Grupo 21793" transform="translate(400.032 651.431)">
          <circle id="Elipse_59" data-name="Elipse 59" cx="2.375" cy="2.375" r="2.375" fill="#fff"/>
        </g>
        <g id="Grupo_21794" data-name="Grupo 21794" transform="translate(327.278 661.062)">
          <circle id="Elipse_60" data-name="Elipse 60" cx="2.375" cy="2.375" r="2.375" fill="#fff"/>
        </g>
        <g id="Grupo_21795" data-name="Grupo 21795" transform="translate(292.759 598.045)">
          <path id="Trazado_80" data-name="Trazado 80" d="M191.531,321.594a2.375,2.375,0,1,1-2.374-2.374A2.376,2.376,0,0,1,191.531,321.594Z" transform="translate(-186.781 -319.22)" fill="#fff"/>
        </g>
        <g id="Grupo_21796" data-name="Grupo 21796" transform="translate(373.428 586.575)">
          <path id="Trazado_81" data-name="Trazado 81" d="M231.491,315.912a2.374,2.374,0,1,1-2.374-2.374A2.374,2.374,0,0,1,231.491,315.912Z" transform="translate(-226.743 -313.538)" fill="#fff"/>
        </g>
        <g id="Grupo_21797" data-name="Grupo 21797" transform="translate(358.201 542.262)">
          <path id="Trazado_82" data-name="Trazado 82" d="M223.95,293.96a2.375,2.375,0,1,1-2.376-2.374A2.376,2.376,0,0,1,223.95,293.96Z" transform="translate(-219.2 -291.586)" fill="#fff"/>
        </g>
        <g id="Grupo_21798" data-name="Grupo 21798" transform="translate(323.291 550.068)">
          <path id="Trazado_83" data-name="Trazado 83" d="M206.654,297.827a2.374,2.374,0,1,1-2.374-2.374A2.374,2.374,0,0,1,206.654,297.827Z" transform="translate(-201.906 -295.453)" fill="#fff"/>
        </g>
        <g id="Grupo_21799" data-name="Grupo 21799" transform="translate(0 468.496)">
          <path id="Trazado_84" data-name="Trazado 84" d="M46.5,257.418a2.375,2.375,0,1,1-2.374-2.374A2.376,2.376,0,0,1,46.5,257.418Z" transform="translate(-41.754 -255.044)" fill="#fff"/>
        </g>
        <g id="Grupo_21800" data-name="Grupo 21800" transform="translate(53.443 521.949)">
          <circle id="Elipse_61" data-name="Elipse 61" cx="2.375" cy="2.375" r="2.375" fill="#fff"/>
        </g>
        <g id="Grupo_21801" data-name="Grupo 21801" transform="translate(215.103 468.506)">
          <path id="Trazado_85" data-name="Trazado 85" d="M153.06,257.423a2.374,2.374,0,1,1-2.374-2.374A2.373,2.373,0,0,1,153.06,257.423Z" transform="translate(-148.312 -255.049)" fill="#fff"/>
        </g>
        <g id="Grupo_21802" data-name="Grupo 21802" transform="translate(152.35 348.945)">
          <circle id="Elipse_62" data-name="Elipse 62" cx="2.375" cy="2.375" r="2.375" fill="#fff"/>
        </g>
        <g id="Grupo_21803" data-name="Grupo 21803" transform="translate(39.893 344.81)">
          <path id="Trazado_86" data-name="Trazado 86" d="M66.266,196.146a2.375,2.375,0,1,1-2.374-2.374A2.376,2.376,0,0,1,66.266,196.146Z" transform="translate(-61.516 -193.772)" fill="#fff"/>
        </g>
      </g>
      <g id="Grupo_21832" data-name="Grupo 21832" transform="translate(746.633 255.63)">
        <g id="Grupo_21805" data-name="Grupo 21805" transform="translate(190.142 47.753)">
          <path id="Trazado_87" data-name="Trazado 87" d="M489.878,164.25a2.374,2.374,0,1,1-2.374-2.374A2.373,2.373,0,0,1,489.878,164.25Z" transform="translate(-485.13 -161.876)" fill="#fff"/>
        </g>
        <g id="Grupo_21806" data-name="Grupo 21806" transform="translate(321.871 91.976)">
          <path id="Trazado_88" data-name="Trazado 88" d="M555.136,186.157a2.375,2.375,0,1,1-2.374-2.374A2.374,2.374,0,0,1,555.136,186.157Z" transform="translate(-550.386 -183.783)" fill="#fff"/>
        </g>
        <g id="Grupo_21807" data-name="Grupo 21807" transform="translate(173.028 145.25)">
          <path id="Trazado_89" data-name="Trazado 89" d="M481.4,212.55a2.375,2.375,0,1,1-2.376-2.376A2.376,2.376,0,0,1,481.4,212.55Z" transform="translate(-476.652 -210.174)" fill="#fff"/>
        </g>
        <g id="Grupo_21808" data-name="Grupo 21808" transform="translate(196.053 105.099)">
          <path id="Trazado_90" data-name="Trazado 90" d="M492.808,192.658a2.375,2.375,0,1,1-2.376-2.374A2.376,2.376,0,0,1,492.808,192.658Z" transform="translate(-488.058 -190.284)" fill="#fff"/>
        </g>
        <g id="Grupo_21809" data-name="Grupo 21809" transform="translate(458.819 166.063)">
          <circle id="Elipse_63" data-name="Elipse 63" cx="2.375" cy="2.375" r="2.375" fill="#fff"/>
        </g>
        <g id="Grupo_21810" data-name="Grupo 21810" transform="translate(165.601 223.15)">
          <path id="Trazado_91" data-name="Trazado 91" d="M477.721,251.138a2.374,2.374,0,1,1-2.374-2.374A2.373,2.373,0,0,1,477.721,251.138Z" transform="translate(-472.973 -248.764)" fill="#fff"/>
        </g>
        <g id="Grupo_21811" data-name="Grupo 21811" transform="translate(156.182 308.557)">
          <path id="Trazado_92" data-name="Trazado 92" d="M473.057,293.447a2.375,2.375,0,1,1-2.376-2.374A2.376,2.376,0,0,1,473.057,293.447Z" transform="translate(-468.307 -291.073)" fill="#fff"/>
        </g>
        <g id="Grupo_21812" data-name="Grupo 21812" transform="translate(492.994 280.356)">
          <path id="Trazado_93" data-name="Trazado 93" d="M639.9,279.477a2.374,2.374,0,1,1-2.374-2.374A2.373,2.373,0,0,1,639.9,279.477Z" transform="translate(-635.157 -277.103)" fill="#fff"/>
        </g>
        <g id="Grupo_21813" data-name="Grupo 21813" transform="translate(517.973 213.569)">
          <circle id="Elipse_64" data-name="Elipse 64" cx="2.375" cy="2.375" r="2.375" fill="#fff"/>
        </g>
        <g id="Grupo_21814" data-name="Grupo 21814" transform="translate(416.991 95.604)">
          <circle id="Elipse_65" data-name="Elipse 65" cx="2.375" cy="2.375" r="2.375" fill="#fff"/>
        </g>
        <g id="Grupo_21815" data-name="Grupo 21815" transform="translate(460.854 26.937)">
          <circle id="Elipse_66" data-name="Elipse 66" cx="2.375" cy="2.375" r="2.375" fill="#fff"/>
        </g>
        <g id="Grupo_21816" data-name="Grupo 21816" transform="translate(283.696)">
          <path id="Trazado_94" data-name="Trazado 94" d="M536.223,140.594a2.374,2.374,0,1,1-2.374-2.374A2.374,2.374,0,0,1,536.223,140.594Z" transform="translate(-531.475 -138.22)" fill="#fff"/>
        </g>
        <g id="Grupo_21817" data-name="Grupo 21817" transform="translate(283.678 44.21)">
          <path id="Trazado_95" data-name="Trazado 95" d="M536.214,162.495a2.374,2.374,0,1,1-2.374-2.374A2.374,2.374,0,0,1,536.214,162.495Z" transform="translate(-531.466 -160.121)" fill="#fff"/>
        </g>
        <g id="Grupo_21818" data-name="Grupo 21818" transform="translate(605.368 344.845)">
          <circle id="Elipse_67" data-name="Elipse 67" cx="2.375" cy="2.375" r="2.375" fill="#fff"/>
        </g>
        <g id="Grupo_21819" data-name="Grupo 21819" transform="translate(567.256 474.144)">
          <path id="Trazado_96" data-name="Trazado 96" d="M676.695,375.476a2.375,2.375,0,1,1-2.374-2.374A2.375,2.375,0,0,1,676.695,375.476Z" transform="translate(-671.945 -373.102)" fill="#fff"/>
        </g>
        <g id="Grupo_21820" data-name="Grupo 21820" transform="translate(571.08 571.291)">
          <circle id="Elipse_68" data-name="Elipse 68" cx="2.375" cy="2.375" r="2.375" fill="#fff"/>
        </g>
        <g id="Grupo_21821" data-name="Grupo 21821" transform="translate(400.031 651.43)">
          <path id="Trazado_97" data-name="Trazado 97" d="M593.855,463.3a2.375,2.375,0,1,1-2.376-2.374A2.374,2.374,0,0,1,593.855,463.3Z" transform="translate(-589.105 -460.926)" fill="#fff"/>
        </g>
        <g id="Grupo_21822" data-name="Grupo 21822" transform="translate(327.277 661.061)">
          <path id="Trazado_98" data-name="Trazado 98" d="M557.814,468.071a2.375,2.375,0,1,1-2.376-2.374A2.376,2.376,0,0,1,557.814,468.071Z" transform="translate(-553.064 -465.697)" fill="#fff"/>
        </g>
        <g id="Grupo_21823" data-name="Grupo 21823" transform="translate(292.759 598.045)">
          <circle id="Elipse_69" data-name="Elipse 69" cx="2.375" cy="2.375" r="2.375" fill="#fff"/>
        </g>
        <g id="Grupo_21824" data-name="Grupo 21824" transform="translate(373.427 586.574)">
          <circle id="Elipse_70" data-name="Elipse 70" cx="2.375" cy="2.375" r="2.375" fill="#fff"/>
        </g>
        <g id="Grupo_21825" data-name="Grupo 21825" transform="translate(358.201 542.262)">
          <path id="Trazado_99" data-name="Trazado 99" d="M573.133,409.22a2.375,2.375,0,1,1-2.374-2.374A2.374,2.374,0,0,1,573.133,409.22Z" transform="translate(-568.383 -406.846)" fill="#fff"/>
        </g>
        <g id="Grupo_21826" data-name="Grupo 21826" transform="translate(323.29 550.067)">
          <circle id="Elipse_71" data-name="Elipse 71" cx="2.375" cy="2.375" r="2.375" transform="translate(0 0)" fill="#fff"/>
        </g>
        <g id="Grupo_21827" data-name="Grupo 21827" transform="translate(0 468.496)">
          <circle id="Elipse_72" data-name="Elipse 72" cx="2.375" cy="2.375" r="2.375" fill="#fff"/>
        </g>
        <g id="Grupo_21828" data-name="Grupo 21828" transform="translate(53.441 521.948)">
          <path id="Trazado_100" data-name="Trazado 100" d="M422.161,399.157a2.375,2.375,0,1,1-2.374-2.374A2.376,2.376,0,0,1,422.161,399.157Z" transform="translate(-417.411 -396.783)" fill="#fff"/>
        </g>
        <g id="Grupo_21829" data-name="Grupo 21829" transform="translate(215.102 468.506)">
          <path id="Trazado_101" data-name="Trazado 101" d="M502.245,372.683a2.375,2.375,0,1,1-2.376-2.374A2.376,2.376,0,0,1,502.245,372.683Z" transform="translate(-497.495 -370.309)" fill="#fff"/>
        </g>
        <g id="Grupo_21830" data-name="Grupo 21830" transform="translate(152.35 348.944)">
          <circle id="Elipse_73" data-name="Elipse 73" cx="2.375" cy="2.375" r="2.375" fill="#fff"/>
        </g>
        <g id="Grupo_21831" data-name="Grupo 21831" transform="translate(39.892 344.81)">
          <path id="Trazado_102" data-name="Trazado 102" d="M415.449,311.406a2.375,2.375,0,1,1-2.374-2.374A2.374,2.374,0,0,1,415.449,311.406Z" transform="translate(-410.699 -309.032)" fill="#fff"/>
        </g>
      </g>
      <g id="Grupo_21841" data-name="Grupo 21841" transform="translate(480.414 212.382)">
        <g id="Grupo_21833" data-name="Grupo 21833" transform="translate(117.683 118.796)">
          <path id="Trazado_103" data-name="Trazado 103" d="M322.1,178.019a2.374,2.374,0,1,1-2.374-2.374A2.374,2.374,0,0,1,322.1,178.019Z" transform="translate(-317.356 -175.645)" fill="#fff"/>
        </g>
        <g id="Grupo_21834" data-name="Grupo 21834" transform="translate(167.805 74.309)">
          <path id="Trazado_104" data-name="Trazado 104" d="M346.933,155.981a2.374,2.374,0,1,1-2.374-2.374A2.373,2.373,0,0,1,346.933,155.981Z" transform="translate(-342.185 -153.607)" fill="#fff"/>
        </g>
        <g id="Grupo_21835" data-name="Grupo 21835" transform="translate(133.422 101.024)">
          <circle id="Elipse_74" data-name="Elipse 74" cx="2.375" cy="2.375" r="2.375" fill="#fff"/>
        </g>
        <g id="Grupo_21836" data-name="Grupo 21836" transform="translate(247.62 59.11)">
          <path id="Trazado_105" data-name="Trazado 105" d="M386.474,148.452a2.375,2.375,0,1,1-2.376-2.374A2.374,2.374,0,0,1,386.474,148.452Z" transform="translate(-381.724 -146.078)" fill="#fff"/>
        </g>
        <g id="Grupo_21837" data-name="Grupo 21837" transform="translate(299.049 103.123)">
          <path id="Trazado_106" data-name="Trazado 106" d="M411.951,170.255a2.375,2.375,0,1,1-2.374-2.374A2.374,2.374,0,0,1,411.951,170.255Z" transform="translate(-407.201 -167.881)" fill="#fff"/>
        </g>
        <g id="Grupo_21838" data-name="Grupo 21838" transform="translate(110.406)">
          <path id="Trazado_107" data-name="Trazado 107" d="M318.5,119.17a2.375,2.375,0,1,1-2.376-2.374A2.374,2.374,0,0,1,318.5,119.17Z" transform="translate(-313.751 -116.796)" fill="#fff"/>
        </g>
        <g id="Grupo_21839" data-name="Grupo 21839" transform="translate(0 91.618)">
          <circle id="Elipse_75" data-name="Elipse 75" cx="2.375" cy="2.375" r="2.375" fill="#fff"/>
        </g>
        <g id="Grupo_21840" data-name="Grupo 21840" transform="translate(446.859 633.095)">
          <path id="Trazado_108" data-name="Trazado 108" d="M485.173,432.793a2.375,2.375,0,1,1-2.374-2.374A2.374,2.374,0,0,1,485.173,432.793Z" transform="translate(-480.423 -430.419)" fill="#fff"/>
        </g>
      </g>
    </g>
    <g id="Grupo_21843" data-name="Grupo 21843" transform="translate(-44.923 1)">
      <circle id="Elipse_76" data-name="Elipse 76" cx="60.257" cy="60.257" r="60.257" transform="translate(44.923 31.846)" opacity="0.5" fill="url(#linear-gradient)" style="mix-blend-mode: overlay;isolation: isolate"/>
      <path id="Trazado_109" data-name="Trazado 109" d="M750.728,0V197.481A163.9,163.9,0,0,1,549.736,0Z" transform="translate(1220.811)" opacity="0.5" fill="url(#linear-gradient-2)" style="mix-blend-mode: overlay;isolation: isolate"/>
      <circle id="Elipse_77" data-name="Elipse 77" cx="70.107" cy="70.107" r="70.107" transform="translate(89.079 935.787)" opacity="0.5" fill="url(#linear-gradient-3)" style="mix-blend-mode: overlay;isolation: isolate"/>
      <circle id="Elipse_78" data-name="Elipse 78" cx="35.289" cy="35.289" r="35.289" transform="translate(1530.728 995.671)" opacity="0.5" fill="url(#linear-gradient-4)" style="mix-blend-mode: overlay;isolation: isolate"/>
    </g>
  </g>
</svg>
