<svg xmlns="http://www.w3.org/2000/svg" width="30.428" height="17.75" viewBox="0 0 30.428 17.75">
  <g id="Icon_ionic-ios-menu" data-name="Icon ionic-ios-menu" transform="translate(-4.5 -10.125)">
    <path id="Trazado_12" data-name="Trazado 12" d="M33.66,12.661H5.768A1.272,1.272,0,0,1,4.5,11.393h0a1.272,1.272,0,0,1,1.268-1.268H33.66a1.272,1.272,0,0,1,1.268,1.268h0A1.272,1.272,0,0,1,33.66,12.661Z" fill="#0089ff"/>
    <path id="Trazado_13" data-name="Trazado 13" d="M33.66,19.411H5.768A1.272,1.272,0,0,1,4.5,18.143h0a1.272,1.272,0,0,1,1.268-1.268H33.66a1.272,1.272,0,0,1,1.268,1.268h0A1.272,1.272,0,0,1,33.66,19.411Z" transform="translate(0 0.857)" fill="#0089ff"/>
    <path id="Trazado_14" data-name="Trazado 14" d="M33.66,26.161H5.768A1.272,1.272,0,0,1,4.5,24.893h0a1.272,1.272,0,0,1,1.268-1.268H33.66a1.272,1.272,0,0,1,1.268,1.268h0A1.272,1.272,0,0,1,33.66,26.161Z" transform="translate(0 1.714)" fill="#0089ff"/>
  </g>
</svg>
