<svg id="Icon_material-keyboard-voice" data-name="Icon material-keyboard-voice" xmlns="http://www.w3.org/2000/svg" width="46" height="46" viewBox="0 0 46 46">
  <circle id="Elipse_79" data-name="Elipse 79" cx="23" cy="23" r="23" fill="#fff"/>
  <path id="Icon_material-keyboard-voice-2" data-name="Icon material-keyboard-voice" d="M16.648,20.182a3.9,3.9,0,0,0,3.907-3.921l.013-7.841a3.921,3.921,0,1,0-7.841,0v7.841A3.915,3.915,0,0,0,16.648,20.182Zm6.926-3.921a6.781,6.781,0,0,1-6.926,6.665,6.781,6.781,0,0,1-6.926-6.665H7.5a9.116,9.116,0,0,0,7.841,8.782V29.33h2.614V25.044A9.106,9.106,0,0,0,25.8,16.262Z" transform="translate(6.852 6.335)" fill="#0089ff"/>
</svg>
