<svg xmlns="http://www.w3.org/2000/svg" width="18.296" height="24.83" viewBox="0 0 18.296 24.83">
  <path id="Icon_material-keyboard-voice" data-name="Icon material-keyboard-voice" d="M16.648,20.182a3.9,3.9,0,0,0,3.907-3.921l.013-7.841a3.921,3.921,0,1,0-7.841,0v7.841A3.915,3.915,0,0,0,16.648,20.182Zm6.926-3.921a6.781,6.781,0,0,1-6.926,6.665,6.781,6.781,0,0,1-6.926-6.665H7.5a9.116,9.116,0,0,0,7.841,8.782V29.33h2.614V25.044A9.106,9.106,0,0,0,25.8,16.262Z" transform="translate(-7.5 -4.5)" fill="#0089ff"/>
</svg>
