<svg xmlns="http://www.w3.org/2000/svg" width="13.408" height="13.408" viewBox="0 0 13.408 13.408">
  <g id="Icon_feather-log-out" data-name="Icon feather-log-out" transform="translate(-3 -3)">
    <path id="Trazado_256" data-name="Trazado 256" d="M7.693,16.408H5.011A2.013,2.013,0,0,1,3,14.4V5.011A2.013,2.013,0,0,1,5.011,3H7.693a.67.67,0,0,1,0,1.341H5.011a.671.671,0,0,0-.67.67V14.4a.671.671,0,0,0,.67.67H7.693a.67.67,0,0,1,0,1.341Z" fill="#fff"/>
    <path id="Trazado_257" data-name="Trazado 257" d="M23.17,17.045A.67.67,0,0,1,22.7,15.9l2.878-2.878L22.7,10.144a.67.67,0,0,1,.948-.948L27,12.548a.67.67,0,0,1,0,.948l-3.352,3.352A.668.668,0,0,1,23.17,17.045Z" transform="translate(-10.785 -3.318)" fill="#fff"/>
    <path id="Trazado_258" data-name="Trazado 258" d="M20.715,17.841H12.67a.67.67,0,1,1,0-1.341h8.045a.67.67,0,1,1,0,1.341Z" transform="translate(-4.978 -7.467)" fill="#fff"/>
  </g>
</svg>
