<svg xmlns="http://www.w3.org/2000/svg" width="11.993" height="13.326" viewBox="0 0 11.993 13.326">
  <g id="Icon_feather-user" data-name="Icon feather-user" transform="translate(-4.5 -3)">
    <path id="Trazado_15" data-name="Trazado 15" d="M15.827,26.33a.666.666,0,0,1-.666-.666V24.331a2,2,0,0,0-2-2H7.831a2,2,0,0,0-2,2v1.333a.666.666,0,0,1-1.333,0V24.331A3.331,3.331,0,0,1,7.831,21h5.33a3.335,3.335,0,0,1,3.331,3.331v1.333A.666.666,0,0,1,15.827,26.33Z" transform="translate(0 -10.005)" fill="#0089ff"/>
    <path id="Trazado_16" data-name="Trazado 16" d="M13.831,3A3.331,3.331,0,1,1,10.5,6.331,3.335,3.335,0,0,1,13.831,3Zm0,5.33a2,2,0,1,0-2-2A2,2,0,0,0,13.831,8.33Z" transform="translate(-3.335 0)" fill="#0089ff"/>
  </g>
</svg>
